<svg width="27" height="28" viewBox="0 0 27 28" fill="none" xmlns="http://www.w3.org/2000/svg">
<path d="M19.8112 14.9622C20.6434 11.4852 18.4994 7.99203 15.0225 7.15986C11.5455 6.32769 8.05232 8.47169 7.22015 11.9486C6.38799 15.4255 8.53198 18.9187 12.0089 19.7509C15.4858 20.5831 18.979 18.4391 19.8112 14.9622Z" fill="#FFCC00"/>
<path d="M13.5007 5.23326C13.2841 5.23326 13.0765 5.14724 12.9233 4.99412C12.7702 4.841 12.6842 4.63333 12.6842 4.41678V0.858511C12.6785 0.747897 12.6954 0.63728 12.7338 0.533389C12.7722 0.429499 12.8313 0.334509 12.9076 0.254198C12.9839 0.173888 13.0757 0.109935 13.1774 0.0662345C13.2792 0.0225341 13.3888 0 13.4996 0C13.6103 0 13.7199 0.0225341 13.8217 0.0662345C13.9235 0.109935 14.0153 0.173888 14.0916 0.254198C14.1679 0.334509 14.227 0.429499 14.2654 0.533389C14.3038 0.63728 14.3207 0.747897 14.315 0.858511V4.40812C14.3164 4.51597 14.2964 4.62302 14.2561 4.72307C14.2159 4.82312 14.1561 4.91417 14.0803 4.99094C14.0046 5.0677 13.9143 5.12865 13.8148 5.17025C13.7153 5.21185 13.6085 5.23327 13.5007 5.23326Z" fill="#FFCC00"/>
<path d="M13.501 27.0399C13.3938 27.0399 13.2877 27.0188 13.1886 26.9778C13.0895 26.9368 12.9995 26.8766 12.9237 26.8008C12.8479 26.725 12.7878 26.635 12.7467 26.5359C12.7057 26.4369 12.6846 26.3307 12.6846 26.2235V22.6739C12.6953 22.4649 12.7859 22.268 12.9377 22.1239C13.0894 21.9798 13.2907 21.8994 13.5 21.8994C13.7092 21.8994 13.9105 21.9798 14.0623 22.1239C14.214 22.268 14.3046 22.4649 14.3154 22.6739V26.2235C14.3156 26.3306 14.2948 26.4367 14.254 26.5357C14.2132 26.6348 14.1533 26.7248 14.0776 26.8007C14.002 26.8765 13.9121 26.9367 13.8132 26.9777C13.7142 27.0188 13.6082 27.0399 13.501 27.0399Z" fill="#FFCC00"/>
<path d="M26.1834 14.3576H22.6339C22.4173 14.3576 22.2096 14.2715 22.0565 14.1184C21.9034 13.9653 21.8174 13.7576 21.8174 13.5411C21.8174 13.3245 21.9034 13.1169 22.0565 12.9638C22.2096 12.8106 22.4173 12.7246 22.6339 12.7246H26.1834C26.4 12.7246 26.6077 12.8106 26.7608 12.9638C26.9139 13.1169 26.9999 13.3245 26.9999 13.5411C26.9999 13.7576 26.9139 13.9653 26.7608 14.1184C26.6077 14.2715 26.4 14.3576 26.1834 14.3576Z" fill="#FFCC00"/>
<path d="M0.81648 14.3576H4.36607C4.58261 14.3576 4.79031 14.2715 4.94342 14.1184C5.09654 13.9653 5.18255 13.7576 5.18255 13.5411C5.18255 13.3245 5.09654 13.1169 4.94342 12.9638C4.79031 12.8106 4.58261 12.7246 4.36607 12.7246H0.81648C0.599937 12.7246 0.392241 12.8106 0.239122 12.9638C0.0860036 13.1169 0 13.3245 0 13.5411C0 13.7576 0.0860036 13.9653 0.239122 14.1184C0.392241 14.2715 0.599937 14.3576 0.81648 14.3576Z" fill="#FFCC00"/>
<path d="M7.04262 7.89947C6.93514 7.89954 6.8287 7.87834 6.72945 7.83708C6.63021 7.79582 6.54012 7.73532 6.46437 7.65907L3.95431 5.14901C3.81384 4.99354 3.73852 4.79003 3.74392 4.58058C3.74933 4.37113 3.83502 4.17177 3.98331 4.02376C4.1316 3.87574 4.33114 3.7904 4.5406 3.78539C4.75006 3.78038 4.95343 3.85609 5.10863 3.99684L7.61869 6.50691C7.73237 6.62109 7.80972 6.76634 7.84102 6.92439C7.87232 7.08245 7.85616 7.24622 7.79457 7.39511C7.73298 7.54399 7.62872 7.67132 7.49491 7.76107C7.3611 7.85082 7.20374 7.89897 7.04262 7.89947Z" fill="#FFCC00"/>
<path d="M22.4693 23.3259C22.2527 23.3259 22.0448 23.2403 21.891 23.0877L19.3745 20.5776C19.2956 20.5025 19.2326 20.4124 19.1891 20.3126C19.1456 20.2128 19.1225 20.1052 19.1212 19.9964C19.1198 19.8875 19.1403 19.7794 19.1814 19.6786C19.2224 19.5777 19.2832 19.4861 19.3602 19.4091C19.4372 19.3321 19.5289 19.2712 19.6297 19.2302C19.7306 19.1891 19.8386 19.1687 19.9475 19.17C20.0564 19.1713 20.1639 19.1944 20.2638 19.2379C20.3636 19.2814 20.4537 19.3445 20.5288 19.4233L23.0562 21.9334C23.1699 22.0476 23.2472 22.1928 23.2785 22.3509C23.3098 22.5089 23.2937 22.6727 23.2321 22.8216C23.1705 22.9705 23.0662 23.0978 22.9324 23.1875C22.7986 23.2773 22.6412 23.3254 22.4801 23.3259H22.4693Z" fill="#FFCC00"/>
<path d="M4.53291 23.3261C4.37161 23.326 4.21395 23.2782 4.07981 23.1886C3.94567 23.099 3.84108 22.9717 3.77922 22.8227C3.71736 22.6738 3.70102 22.5098 3.73224 22.3516C3.76347 22.1933 3.84087 22.0478 3.95468 21.9335L6.46474 19.4235C6.61905 19.2765 6.82471 19.1957 7.03779 19.1983C7.25087 19.2009 7.45447 19.2867 7.60516 19.4374C7.75584 19.5881 7.84165 19.7917 7.84425 20.0048C7.84685 20.2178 7.76602 20.4235 7.61906 20.5778L5.109 23.0879C4.95591 23.2401 4.74884 23.3258 4.53291 23.3261Z" fill="#FFCC00"/>
<path d="M19.9592 7.89947C19.7979 7.8994 19.6402 7.85156 19.5061 7.76197C19.3719 7.67239 19.2674 7.54507 19.2055 7.3961C19.1436 7.24713 19.1273 7.08318 19.1585 6.92493C19.1897 6.76667 19.2671 6.62122 19.381 6.50691L21.891 3.99684C22.0462 3.85609 22.2496 3.78038 22.459 3.78539C22.6685 3.7904 22.868 3.87574 23.0163 4.02376C23.1646 4.17177 23.2503 4.37113 23.2557 4.58058C23.2611 4.79003 23.1858 4.99354 23.0453 5.14901L20.5353 7.65907C20.46 7.73535 20.3703 7.79589 20.2714 7.83716C20.1725 7.87843 20.0664 7.89961 19.9592 7.89947Z" fill="#FFCC00"/>
</svg>
