<svg width="43" height="34" viewBox="0 0 43 34" fill="none" xmlns="http://www.w3.org/2000/svg">
<path d="M7.52592 11.8037C4.97258 10.6093 1.24625 10.4277 1.24625 10.4277C8.13264 7.93941 6.88652 4.50162 13.7729 2.01329L16.8882 10.6078C10.0018 13.0961 11.248 16.5339 4.36156 19.0222C4.36156 19.0222 6.65496 15.2775 7.52592 11.8037ZM26.3946 27.0049L24.1415 26.6041L14.6337 1.70225L16.3553 1.08016L26.3946 27.0049Z" fill="#0D2C6C"/>
<path d="M35.2733 11.998C37.8652 10.8895 41.5955 10.8324 41.5955 10.8324C34.7963 8.11561 36.1568 4.72134 29.3576 2.00453L25.9563 10.4902C32.7555 13.207 31.3949 16.6013 38.1942 19.3181C38.1942 19.3181 36.0274 15.4989 35.2733 11.998ZM15.9061 26.5609L18.1713 26.2354L28.5077 1.66492L26.8079 0.98572L15.9061 26.5609Z" fill="#0D2C6C"/>
</svg>
