<svg width="34" height="34" viewBox="0 0 34 34" fill="none" xmlns="http://www.w3.org/2000/svg">
<path d="M10.625 4.95837C10.0614 4.95837 9.52089 5.18226 9.12238 5.58077C8.72386 5.97929 8.49998 6.51979 8.49998 7.08337C8.49998 7.64696 8.72386 8.18746 9.12238 8.58598C9.52089 8.98449 10.0614 9.20837 10.625 9.20837C11.1886 9.20837 11.7291 8.98449 12.1276 8.58598C12.5261 8.18746 12.75 7.64696 12.75 7.08337C12.75 6.51979 12.5261 5.97929 12.1276 5.58077C11.7291 5.18226 11.1886 4.95837 10.625 4.95837ZM6.37498 7.08337C6.37498 5.9562 6.82275 4.8752 7.61978 4.07817C8.41681 3.28114 9.49781 2.83337 10.625 2.83337C11.7521 2.83337 12.8332 3.28114 13.6302 4.07817C14.4272 4.8752 14.875 5.9562 14.875 7.08337C14.875 8.21054 14.4272 9.29155 13.6302 10.0886C12.8332 10.8856 11.7521 11.3334 10.625 11.3334C9.49781 11.3334 8.41681 10.8856 7.61978 10.0886C6.82275 9.29155 6.37498 8.21054 6.37498 7.08337ZM5.33798 12.75C3.95248 12.75 2.83331 13.8706 2.83331 15.2547V15.7647C2.83331 16.058 2.83331 17.7594 3.82498 19.4126C4.60131 20.7018 5.9174 21.8592 8.03956 22.3777C8.33022 21.6051 8.85656 20.9434 9.54406 20.4865C7.27315 20.2442 6.19931 19.2355 5.64823 18.319C4.96256 17.1771 4.95831 15.9616 4.95831 15.7605V15.2547C4.95831 15.045 5.12831 14.875 5.33798 14.875H11.3758C11.4694 14.1259 11.7127 13.4032 12.0912 12.75H5.33798ZM21.9087 12.75C22.2785 13.3904 22.5278 14.1086 22.6227 14.875H28.662C28.8716 14.875 29.0416 15.045 29.0416 15.2547V15.7605C29.0416 15.9616 29.0374 17.1771 28.3517 18.3175C27.8006 19.2355 26.7268 20.2442 24.4559 20.4865C25.1359 20.9398 25.6686 21.6 25.9604 22.3777C28.0826 21.8592 29.3986 20.7018 30.1736 19.4126C31.1666 17.7594 31.1666 16.0594 31.1666 15.7633V15.2533C31.1666 13.872 30.0461 12.75 28.662 12.75H21.9087ZM21.25 7.08337C21.25 6.51979 21.4739 5.97929 21.8724 5.58077C22.2709 5.18226 22.8114 4.95837 23.375 4.95837C23.9386 4.95837 24.4791 5.18226 24.8776 5.58077C25.2761 5.97929 25.5 6.51979 25.5 7.08337C25.5 7.64696 25.2761 8.18746 24.8776 8.58598C24.4791 8.98449 23.9386 9.20837 23.375 9.20837C22.8114 9.20837 22.2709 8.98449 21.8724 8.58598C21.4739 8.18746 21.25 7.64696 21.25 7.08337ZM23.375 2.83337C22.2478 2.83337 21.1668 3.28114 20.3698 4.07817C19.5727 4.8752 19.125 5.9562 19.125 7.08337C19.125 8.21054 19.5727 9.29155 20.3698 10.0886C21.1668 10.8856 22.2478 11.3334 23.375 11.3334C24.5021 11.3334 25.5832 10.8856 26.3802 10.0886C27.1772 9.29155 27.625 8.21054 27.625 7.08337C27.625 5.9562 27.1772 4.8752 26.3802 4.07817C25.5832 3.28114 24.5021 2.83337 23.375 2.83337ZM17 13.4584C16.7209 13.4584 16.4446 13.5133 16.1868 13.6201C15.929 13.7269 15.6947 13.8834 15.4974 14.0808C15.3001 14.2781 15.1435 14.5124 15.0367 14.7702C14.9299 15.028 14.875 15.3043 14.875 15.5834C14.875 15.8624 14.9299 16.1388 15.0367 16.3966C15.1435 16.6544 15.3001 16.8887 15.4974 17.086C15.6947 17.2833 15.929 17.4398 16.1868 17.5466C16.4446 17.6534 16.7209 17.7084 17 17.7084C17.5636 17.7084 18.1041 17.4845 18.5026 17.086C18.9011 16.6875 19.125 16.147 19.125 15.5834C19.125 15.0198 18.9011 14.4793 18.5026 14.0808C18.1041 13.6823 17.5636 13.4584 17 13.4584ZM12.75 15.5834C12.75 14.4562 13.1977 13.3752 13.9948 12.5782C14.7918 11.7811 15.8728 11.3334 17 11.3334C18.1271 11.3334 19.2082 11.7811 20.0052 12.5782C20.8022 13.3752 21.25 14.4562 21.25 15.5834C21.25 16.7105 20.8022 17.7915 20.0052 18.5886C19.2082 19.3856 18.1271 19.8334 17 19.8334C15.8728 19.8334 14.7918 19.3856 13.9948 18.5886C13.1977 17.7915 12.75 16.7105 12.75 15.5834ZM9.20831 23.7547C9.20831 22.3692 10.3289 21.25 11.713 21.25H22.287C23.6711 21.25 24.7916 22.3706 24.7916 23.7547V24.2647C24.7916 24.558 24.7916 26.2594 23.8 27.9126C22.7474 29.6608 20.7017 31.1667 17 31.1667C13.2982 31.1667 11.2511 29.6608 10.2 27.9126C9.20831 26.2594 9.20831 24.5594 9.20831 24.2633V23.7547ZM11.713 23.375C11.6631 23.375 11.6138 23.3849 11.5677 23.4039C11.5216 23.423 11.4798 23.451 11.4445 23.4862C11.4093 23.5215 11.3813 23.5634 11.3622 23.6094C11.3431 23.6555 11.3333 23.7048 11.3333 23.7547V24.2605C11.3333 24.4616 11.3376 25.6771 12.0232 26.8175C12.6551 27.8701 13.974 29.0417 17 29.0417C20.026 29.0417 21.3449 27.8701 21.9767 26.8175C22.6624 25.6771 22.6666 24.4616 22.6666 24.2605V23.7547C22.6666 23.654 22.6266 23.5574 22.5554 23.4862C22.4842 23.415 22.3877 23.375 22.287 23.375H11.713Z" fill="white"/>
</svg>
