<svg width="37" height="37" viewBox="0 0 37 37" fill="none" xmlns="http://www.w3.org/2000/svg">
<path d="M27.75 30.0625H9.25C6.68775 30.0625 4.625 27.9998 4.625 25.4375V13.875C4.625 11.3127 6.68775 9.25 9.25 9.25H27.75C30.3123 9.25 32.375 11.3127 32.375 13.875V25.4375C32.375 27.9998 30.3122 30.0625 27.75 30.0625Z" stroke="white" stroke-width="2.5" stroke-linecap="round" stroke-linejoin="round"/>
<path d="M19 9L24 4" stroke="white" stroke-width="2" stroke-linecap="round" stroke-linejoin="round"/>
<path d="M19 9L13 4" stroke="white" stroke-width="2" stroke-linecap="round" stroke-linejoin="round"/>
<path d="M22.8688 18.2925C23.0663 18.6476 23.2132 19.0174 23.3096 19.4021C23.4059 19.7867 23.4565 20.1837 23.4613 20.593V21.3549L18.8363 23.7293L14.2113 21.3549C14.2113 21.059 14.2137 20.7828 14.2186 20.5264C14.2234 20.27 14.2451 20.0209 14.2836 19.7793C14.3221 19.5377 14.38 19.2961 14.457 19.0544C14.5341 18.8128 14.6498 18.5588 14.8039 18.2925L13.2863 17.5159V21.8578C13.4261 21.9072 13.5513 21.9762 13.6621 22.065C13.7729 22.1537 13.8717 22.2573 13.9584 22.3756C14.0451 22.494 14.1078 22.6222 14.1463 22.7603C14.1848 22.8983 14.2065 23.0438 14.2113 23.1967V25.5637H11.4363V23.1967C11.4363 23.0487 11.458 22.9057 11.5014 22.7677C11.5447 22.6296 11.6074 22.4989 11.6893 22.3756C11.7712 22.2523 11.8675 22.1488 11.9783 22.065C12.0891 21.9811 12.2168 21.9121 12.3613 21.8578V17.0425L11.4363 16.5691L18.8363 12.7819L26.2363 16.5691L22.8688 18.2925ZM13.2863 23.1967C13.2863 23.0685 13.2406 22.9575 13.149 22.8638C13.0575 22.7701 12.9491 22.7233 12.8238 22.7233C12.6986 22.7233 12.5902 22.7701 12.4986 22.8638C12.4071 22.9575 12.3613 23.0685 12.3613 23.1967V24.6169H13.2863V23.1967ZM13.5031 16.5691L18.8363 19.2985L24.1695 16.5691L18.8363 13.8396L13.5031 16.5691ZM22.5363 20.7705C22.5363 20.3908 22.5002 20.0382 22.4279 19.7127C22.3557 19.3873 22.228 19.0544 22.0449 18.7142L18.8363 20.3563L15.6277 18.7142C15.4688 19.0002 15.3483 19.301 15.2664 19.6166C15.1845 19.9322 15.1412 20.2576 15.1363 20.593V20.7705L18.8363 22.6641L22.5363 20.7705Z" fill="white"/>
</svg>
