<svg width="28" height="28" viewBox="0 0 28 28" fill="none" xmlns="http://www.w3.org/2000/svg">
<path d="M19.25 0H8.25C3.70012 0 0 3.70012 0 8.25V26.125C0 26.4897 0.144866 26.8394 0.402728 27.0973C0.660591 27.3551 1.01033 27.5 1.375 27.5H19.25C23.7999 27.5 27.5 23.7999 27.5 19.25V8.25C27.5 3.70012 23.7999 0 19.25 0ZM24.75 19.25C24.75 22.2833 22.2833 24.75 19.25 24.75H2.75V8.25C2.75 5.21675 5.21675 2.75 8.25 2.75H19.25C22.2833 2.75 24.75 5.21675 24.75 8.25V19.25Z" fill="white"/>
<path d="M6.875 9.625H20.625V12.375H6.875V9.625ZM6.875 15.125H16.5V17.875H6.875V15.125Z" fill="white"/>
</svg>
