<svg width="31" height="25" viewBox="0 0 31 25" fill="none" xmlns="http://www.w3.org/2000/svg">
<path d="M2 2H7.79167L8.66667 5.5M8.66667 5.5L11.5833 17.1667H26.75L29.6667 5.5H8.66667Z" stroke="white" stroke-width="2.5" stroke-linecap="round" stroke-linejoin="round"/>
<path d="M12 23.5C13.1046 23.5 14 22.6046 14 21.5C14 20.3954 13.1046 19.5 12 19.5C10.8954 19.5 10 20.3954 10 21.5C10 22.6046 10.8954 23.5 12 23.5Z" stroke="white" stroke-width="2.5" stroke-linecap="round" stroke-linejoin="round"/>
<path d="M27 23.5C28.1046 23.5 29 22.6046 29 21.5C29 20.3954 28.1046 19.5 27 19.5C25.8954 19.5 25 20.3954 25 21.5C25 22.6046 25.8954 23.5 27 23.5Z" stroke="white" stroke-width="2.5" stroke-linecap="round" stroke-linejoin="round"/>
</svg>
