<svg width="52" height="52" viewBox="0 0 52 52" fill="none" xmlns="http://www.w3.org/2000/svg">
<path fill-rule="evenodd" clip-rule="evenodd" d="M39.8948 14.7799L37.375 6.62024L34.8552 14.7799L29.9802 17.1015L34.8768 19.4328L37.375 26.572L39.8732 19.4328L44.7698 17.1015L39.8948 14.7799ZM36.6448 16.3269L37.375 13.9631L38.1052 16.328L39.7302 17.1015L38.1268 17.8652L37.375 20.0124L36.6232 17.8652L35.0198 17.1015L36.6448 16.3269Z" fill="white"/>
<path d="M20.5833 17.3333L21.6666 13L22.75 17.3333L26 18.4167L22.75 19.5L21.6666 23.8333L20.5833 19.5L17.3333 18.4167L20.5833 17.3333Z" fill="white"/>
<path fill-rule="evenodd" clip-rule="evenodd" d="M14.0833 43.0625V43.329C14.0833 43.9036 13.8551 44.4547 13.4487 44.861C13.0424 45.2674 12.4913 45.4956 11.9167 45.4956H8.66667C8.09203 45.4956 7.54093 45.2674 7.1346 44.861C6.72827 44.4547 6.5 43.9036 6.5 43.329V31.4177C6.5 30.8431 6.72827 30.292 7.1346 29.8856C7.54093 29.4793 8.09203 29.251 8.66667 29.251H11.9167C12.4046 29.2508 12.8784 29.4153 13.2612 29.7179C13.644 30.0205 13.9134 30.4435 14.0259 30.9183C15.4602 30.4015 17.1362 29.7862 17.6486 29.5522C18.0841 29.354 18.5868 29.2868 19.0049 29.2619C19.4365 29.241 19.8689 29.2486 20.2995 29.2846C20.7816 29.323 21.2617 29.3838 21.7382 29.4666L21.7631 29.471L21.7707 29.472H21.7739L21.7934 29.4764L29.0409 31.1014L29.0853 31.1165L29.0972 31.1209L29.1471 31.136C29.4598 31.2277 29.7756 31.3083 30.0939 31.3776C30.7168 31.513 31.5023 31.6398 32.2335 31.6398C32.9095 31.6398 33.6093 31.8922 33.982 32.5769C34.3027 33.164 34.2279 33.8097 34.1088 34.256C33.9582 34.8129 33.6483 35.3979 33.2551 35.8951C33.7859 35.6947 34.3677 35.4575 34.9917 35.2018L35.1249 35.1476C36.8832 34.425 38.9675 33.5692 40.807 33.2659C42.9087 32.9181 44.4373 33.6808 45.1306 35.0339C45.7481 36.2385 45.6051 37.8191 44.6756 38.7714C44.4427 39.0108 44.0873 39.2621 43.7309 39.4929C43.3496 39.741 42.8805 40.0194 42.3594 40.3162C41.1623 40.9866 39.9505 41.6302 38.7248 42.2467C36.1552 43.55 33.462 44.8175 32.6062 45.1305C31.6138 45.4935 30.5478 45.5281 29.5241 45.475C28.9058 45.4367 28.2885 45.3843 27.6727 45.318C27.2218 45.2713 26.7703 45.2297 26.3185 45.1934C24.2298 45.0352 22.6265 44.525 21.151 44.0559L20.9712 43.9985C19.4458 43.5153 18.0267 43.0852 16.1471 43.0094C15.7181 42.992 14.8601 43.0256 14.0833 43.0625ZM18.5467 31.5239C18.6171 31.4914 18.8013 31.4448 19.1295 31.4253C19.4372 31.4069 19.7882 31.4188 20.1316 31.4448C20.5425 31.4778 20.9517 31.5295 21.3579 31.5997H21.3612L28.4754 33.1955L28.5242 33.2106C28.8901 33.3183 29.2598 33.413 29.6324 33.4945C30.2662 33.6331 31.1166 33.7783 31.9822 33.8032C31.9049 34.0117 31.8011 34.2094 31.6734 34.3915C31.5001 34.6428 31.3105 34.8367 31.1545 34.9483C30.7038 35.2711 30.3398 35.4055 30.1188 35.4629C30.0436 35.4835 29.9668 35.498 29.8892 35.5062H29.8653L24.0565 35.4369L23.8507 37.5862L23.9081 37.597L24.0738 37.6263L24.6762 37.7325C25.1821 37.8213 25.8765 37.9405 26.6327 38.064C28.1212 38.3066 29.9152 38.5753 30.9335 38.637C31.6377 38.6804 32.4567 38.4637 33.2183 38.2091C34.0123 37.9437 34.9104 37.5765 35.8139 37.206C37.674 36.4433 39.5688 35.6665 41.1602 35.4033C42.536 35.1758 43.0268 35.6785 43.2023 36.0219C43.4547 36.5148 43.3182 37.0619 43.1243 37.259C43.0777 37.3078 42.9076 37.4454 42.5522 37.6761C42.2207 37.8895 41.7928 38.1463 41.2902 38.4312C40.1226 39.0849 38.9408 39.7126 37.7455 40.314C35.1542 41.6281 32.5758 42.8339 31.8608 43.096C31.2823 43.3084 30.5663 43.3593 29.6357 43.3116C29.0875 43.2793 28.5402 43.2327 27.9944 43.1719C27.4909 43.1189 26.9868 43.0727 26.4821 43.0332C24.6491 42.8945 23.2559 42.4515 21.762 41.977L21.6266 41.9336C20.0796 41.4429 18.4243 40.9326 16.2348 40.8449C15.7419 40.8254 14.8644 40.8557 14.0833 40.8925V33.1998C15.6054 32.6549 17.8609 31.837 18.5467 31.5239ZM11.9167 31.4166H8.66667V43.3279H11.9167V31.4166Z" fill="white"/>
</svg>
