<svg width="46" height="46" viewBox="0 0 46 46" fill="none" xmlns="http://www.w3.org/2000/svg">
<path d="M30.1875 4.35706L29.2445 5.39062C27.1328 7.71506 25.392 8.75437 23.943 9.43431C22.494 10.1128 21.2764 10.3155 20.0804 11.2312C18.8054 12.2087 16.9524 14.0832 16.1719 17.4297C14.4986 17.7948 13.2739 18.4359 12.3079 19.2711C11.3534 20.0962 10.6346 21.0349 9.74913 22.057C9.74194 22.0685 9.75344 22.0901 9.74913 22.1016C8.47837 23.5621 7.36719 25.1347 5.21094 25.9656L4.3125 26.3249V41.6875H31.7156C33.2867 41.6027 34.3764 40.5145 35.0391 39.4407C35.7003 38.3683 36.0669 37.2068 36.2523 36.2523C36.7296 33.8201 37.5993 26.818 37.5993 26.818L37.6452 26.6843V26.5492C37.5993 25.5774 37.1996 24.7523 36.7008 23.9876L38.318 19.182L40.8796 15.318L41.5984 14.2844L40.6539 13.432L31.2211 5.25549L30.1875 4.35706ZM30.2781 8.31018L37.7789 14.8249L35.8024 17.7431L35.6687 17.8796L35.6227 18.1039L34.3203 21.9664C33.6404 21.6861 32.9403 21.4892 32.1641 21.5179H32.0735L23 21.5625H21.5625V27.1328C21.3612 28.6997 20.4901 29.3063 19.4062 29.739C19.0469 29.8842 19.0023 29.8051 18.6875 29.8727V21.5194C18.4517 16.1906 20.3492 14.6567 21.8328 13.5226C22.2424 13.2077 23.4427 12.8441 25.1562 12.0405C26.588 11.3663 28.3676 10.1574 30.2781 8.31018ZM15.9031 20.6641C15.8973 20.9904 15.7952 21.2204 15.8125 21.5625V33.0625H17.25C17.25 33.0625 18.7881 33.0452 20.4398 32.3883C22.0901 31.7314 24.0839 30.1932 24.4375 27.4922V24.4375L32.1641 24.3929H32.2086C32.8397 24.3584 33.4587 24.5753 33.9302 24.9961C34.4016 25.4169 34.6872 26.0074 34.7243 26.6383C34.7185 26.6613 34.6524 27.1946 34.6351 27.3125H28.75V30.1875H34.2757C34.1234 31.2987 33.9839 31.9959 33.8258 33.0625H28.75V35.9375H33.3773C33.2074 36.633 32.9347 37.2992 32.568 37.9141C32.1756 38.5537 31.8377 38.7952 31.5359 38.8125H7.1875V28.0758C9.51769 26.8396 10.9667 25.0614 11.9039 23.989C12.8757 22.8764 13.5427 22.034 14.1953 21.4734C14.6222 21.1082 15.2907 20.8998 15.9031 20.6641Z" fill="white"/>
</svg>
