<svg width="39" height="39" viewBox="0 0 39 39" fill="none" xmlns="http://www.w3.org/2000/svg">
<path d="M9.75 14.625C9.75 17.2109 10.7772 19.6908 12.6057 21.5193C14.4342 23.3478 16.9141 24.375 19.5 24.375C22.0859 24.375 24.5658 23.3478 26.3943 21.5193C28.2228 19.6908 29.25 17.2109 29.25 14.625C29.25 12.0391 28.2228 9.55919 26.3943 7.73071C24.5658 5.90223 22.0859 4.875 19.5 4.875C16.9141 4.875 14.4342 5.90223 12.6057 7.73071C10.7772 9.55919 9.75 12.0391 9.75 14.625Z" stroke="white" stroke-width="2" stroke-linecap="round" stroke-linejoin="round"/>
<path d="M19.5 24.375L25.025 33.9462L27.6218 28.6926L33.4685 29.0696L27.9435 19.5M11.0533 19.5L5.52826 29.0712L11.375 28.6926L13.9718 33.9446L19.4968 24.375" stroke="white" stroke-width="2" stroke-linecap="round" stroke-linejoin="round"/>
</svg>
