<svg width="35" height="31" viewBox="0 0 35 31" fill="none" xmlns="http://www.w3.org/2000/svg">
<path d="M23.4993 26.4044C24.7178 25.0785 25.9259 23.7629 27.6319 23.1943C28.4362 22.9092 29.2986 22.8261 30.1429 22.9523C30.9871 23.0785 31.7871 23.4102 32.4722 23.918C34.3493 25.293 36.0759 23.3494 34.0044 21.8348C32.9836 21.0866 31.796 20.5963 30.5435 20.4058C29.2909 20.2154 28.0107 20.3306 26.8126 20.7415C24.9459 21.3618 23.6678 22.7239 22.3922 24.086C21.3552 25.1896 20.3181 26.2958 18.9648 27.004C17.3574 27.8414 16.2037 26.9342 16.2037 25.3602V25.3292C16.2037 23.2667 15.1459 21.9692 12.963 21.9692C11.6926 21.9692 10.3911 22.636 9.07407 23.2615C5.99506 24.7259 3.10711 26.5599 0.474444 28.7228C0.210033 28.9432 0.0434964 29.2587 0.0109763 29.6008C-0.0215438 29.943 0.0825763 30.284 0.300741 30.5501C0.948889 31.3255 1.80444 30.9688 2.45259 30.4519C3.52333 29.5912 7.06741 26.8567 10.0567 25.4377C11.2933 24.851 12.2915 24.5538 12.963 24.5538C13.6111 24.5538 13.6111 24.8174 13.6111 25.4326C13.6059 28.8598 16.9556 30.9688 20.1678 29.294C21.4744 28.609 22.4907 27.5054 23.4993 26.4044ZM3.88889 20.6769C7.77778 18.0923 12.3278 15.5077 16.8519 15.5077C18.7963 15.5077 18.7963 16.4769 18.7963 17.4461C18.7963 18.4153 18.7963 19.3846 20.7407 19.3846C27.2922 19.3846 34.6448 11.0776 35 5.16922L28.5185 7.75383L22.4467 5.23642C20.86 4.70916 20.0407 7.15937 21.6274 7.68663L24.6296 9.04613L20.7407 10.3384L10.3704 7.10768C9.75852 6.90349 9.36185 7.17746 9.07407 7.75383L5.18518 15.5077L0 18.0923L3.88889 20.6769ZM10.3704 2.58461C10.3704 1.89913 10.6435 1.24172 11.1297 0.757015C11.6159 0.272306 12.2754 0 12.963 0C13.6506 0 14.31 0.272306 14.7962 0.757015C15.2824 1.24172 15.5556 1.89913 15.5556 2.58461C15.5556 3.27009 15.2824 3.9275 14.7962 4.41221C14.31 4.89691 13.6506 5.16922 12.963 5.16922C12.2754 5.16922 11.6159 4.89691 11.1297 4.41221C10.6435 3.9275 10.3704 3.27009 10.3704 2.58461Z" fill="white"/>
</svg>
