<svg width="37" height="32" viewBox="0 0 37 32" fill="none" xmlns="http://www.w3.org/2000/svg">
<path d="M30.2727 32H6.72727C6.28123 32 5.85345 31.8284 5.53805 31.523C5.22265 31.2176 5.04545 30.8033 5.04545 30.3714V15.7137H0L17.3681 0.424027C17.6778 0.151195 18.0814 0 18.5 0C18.9186 0 19.3222 0.151195 19.6319 0.424027L37 15.7137H31.9545V30.3714C31.9545 30.8033 31.7774 31.2176 31.462 31.523C31.1466 31.8284 30.7188 32 30.2727 32ZM8.40909 28.7427H28.5909V12.7137L18.5 3.8295L8.40909 12.7137V28.7427ZM11.7727 22.2282H25.2273V25.4855H11.7727V22.2282Z" fill="white"/>
</svg>
