<svg width="39" height="40" viewBox="0 0 39 40" fill="none" xmlns="http://www.w3.org/2000/svg">
<path d="M9.75 15.0663C9.75 17.6521 10.7772 20.1321 12.6057 21.9606C14.4342 23.7891 16.9141 24.8163 19.5 24.8163C22.0859 24.8163 24.5658 23.7891 26.3943 21.9606C28.2228 20.1321 29.25 17.6521 29.25 15.0663C29.25 12.4804 28.2228 10.0005 26.3943 8.17199C24.5658 6.34351 22.0859 5.31628 19.5 5.31628C16.9141 5.31628 14.4342 6.34351 12.6057 8.17199C10.7772 10.0005 9.75 12.4804 9.75 15.0663Z" stroke="white" stroke-width="2" stroke-linecap="round" stroke-linejoin="round"/>
<path d="M19.5 24.8163L25.025 34.3875L27.6218 29.1339L33.4685 29.5109L27.9435 19.9413M11.0533 19.9413L5.52826 29.5125L11.375 29.1339L13.9718 34.3859L19.4968 24.8163" stroke="white" stroke-width="2" stroke-linecap="round" stroke-linejoin="round"/>
</svg>
