<svg width="32" height="28" viewBox="0 0 32 28" fill="none" xmlns="http://www.w3.org/2000/svg">
<path d="M8.66536 17.0469C4.61536 17.0469 1.33203 19.4329 1.33203 21.8922V22.4162C1.33203 22.9222 1.7427 23.3329 2.2487 23.3329H15.9987V21.8922C15.9987 19.4335 12.7154 17.0469 8.66536 17.0469Z" fill="url(#paint0_linear_468_22005)"/>
<path d="M10.668 18.3999C10.668 19.1586 9.86797 19.9999 8.66797 19.9999C7.46797 19.9999 6.66797 19.1586 6.66797 18.3999C6.66797 17.3453 6.66797 15.5859 6.66797 15.5859H10.668C10.668 15.5859 10.668 17.3453 10.668 18.3999Z" fill="#3C5382"/>
<path d="M12.6296 12H12.043V14H12.7076C12.9363 14 13.1316 13.844 13.1703 13.63L13.3236 12.7787C13.3963 12.3713 13.0656 12 12.6296 12Z" fill="#0D2C6C"/>
<path d="M4.70405 12H5.29072V14H4.62605C4.39738 14 4.20205 13.844 4.16338 13.63L4.01005 12.7787C3.93738 12.3713 4.26805 12 4.70405 12Z" fill="#0D2C6C"/>
<path d="M8.66797 7.06641C6.69397 7.06641 4.66797 7.36641 4.66797 11.6331C4.66797 11.9744 4.66797 13.5784 4.66797 13.9431C4.66797 15.4664 7.06797 17.3331 8.66797 17.3331C10.268 17.3331 12.668 15.4664 12.668 13.9431C12.668 13.5784 12.668 11.9744 12.668 11.6331C12.668 7.36641 10.642 7.06641 8.66797 7.06641Z" fill="#28457F"/>
<path d="M8.66667 6C6.832 6 6.66667 6.66667 6.66667 6.66667C5.56867 6.66667 4 7.82 4 10C4 10.7947 4.11733 11.686 4.66667 13.3333C4.92867 10.1887 5.62933 8.86267 6.47067 8.86267C7.07933 8.86267 7.35667 9.412 8.66667 9.412C9.77267 9.412 9.76467 8.86267 10.8627 8.86267C12.304 8.86267 12.6667 12.8373 12.6667 13.3333C13.216 11.686 13.3333 10.694 13.3333 10C13.3333 7.80133 11.6493 6 8.66667 6Z" fill="#0D2C6C"/>
<path d="M8.69346 6C6.75346 6 6.52812 7.27 6.52812 7.27C6.50879 7.914 6.52812 8.54 6.52812 8.54C6.52812 8.54 6.86079 9.33333 8.88279 9.33333C10.1035 9.33333 11.8535 8.42533 11.8535 6C11.8535 6 11.4601 6 8.69346 6Z" fill="#0D2C6C"/>
<path d="M23.3333 17.0469C19.2833 17.0469 16 19.4329 16 21.8922V22.4162C16 22.9222 16.4107 23.3329 16.9167 23.3329H30.6667V21.8922C30.6667 19.4335 27.3833 17.0469 23.3333 17.0469Z" fill="url(#paint1_linear_468_22005)"/>
<path d="M25.3359 18.3999C25.3359 19.1586 24.5359 19.9999 23.3359 19.9999C22.1359 19.9999 21.3359 19.1586 21.3359 18.3999C21.3359 17.3453 21.3359 15.5859 21.3359 15.5859H25.3359C25.3359 15.5859 25.3359 17.3453 25.3359 18.3999Z" fill="#3C5382"/>
<path d="M27.2976 12H26.7109V14H27.3756C27.6043 14 27.7996 13.844 27.8383 13.63L27.9916 12.7787C28.0643 12.3713 27.7336 12 27.2976 12Z" fill="#0D2C6C"/>
<path d="M19.372 12H19.9587V14H19.294C19.0654 14 18.87 13.844 18.8314 13.63L18.678 12.7787C18.6054 12.3713 18.936 12 19.372 12Z" fill="#0D2C6C"/>
<path d="M23.3359 7.06641C21.3619 7.06641 19.3359 7.36641 19.3359 11.6331C19.3359 11.9744 19.3359 13.5784 19.3359 13.9431C19.3359 15.4664 21.7359 17.3331 23.3359 17.3331C24.9359 17.3331 27.3359 15.4664 27.3359 13.9431C27.3359 13.5784 27.3359 11.9744 27.3359 11.6331C27.3359 7.36641 25.3099 7.06641 23.3359 7.06641Z" fill="#28457F"/>
<path d="M23.3346 6C21.5 6 21.3346 6.66667 21.3346 6.66667C20.2366 6.66667 18.668 7.82 18.668 10C18.668 10.7947 18.7853 11.686 19.3346 13.3333C19.5966 10.1887 20.2973 8.86267 21.1386 8.86267C21.7473 8.86267 22.0246 9.412 23.3346 9.412C24.4406 9.412 24.4326 8.86267 25.5306 8.86267C26.972 8.86267 27.3346 12.8373 27.3346 13.3333C27.884 11.686 28.0013 10.694 28.0013 10C28.0013 7.80133 26.3173 6 23.3346 6Z" fill="#0D2C6C"/>
<path d="M23.3614 6C21.4214 6 21.1961 7.27 21.1961 7.27C21.1768 7.914 21.1961 8.54 21.1961 8.54C21.1961 8.54 21.5288 9.33333 23.5508 9.33333C24.7714 9.33333 26.5214 8.42533 26.5214 6C26.5214 6 26.1281 6 23.3614 6Z" fill="#0D2C6C"/>
<defs>
<linearGradient id="paint0_linear_468_22005" x1="7.15137" y1="16.8082" x2="9.19337" y2="23.8329" gradientUnits="userSpaceOnUse">
<stop stop-color="#11306F"/>
<stop offset="1" stop-color="#204082"/>
</linearGradient>
<linearGradient id="paint1_linear_468_22005" x1="21.8193" y1="16.8082" x2="23.8613" y2="23.8329" gradientUnits="userSpaceOnUse">
<stop stop-color="#11306F"/>
<stop offset="1" stop-color="#204082"/>
</linearGradient>
</defs>
</svg>
