<svg width="32" height="32" viewBox="0 0 32 32" fill="none" xmlns="http://www.w3.org/2000/svg">
<path d="M12.1797 28.031V23.9541C12.1797 22.9133 13.0296 22.0696 14.0779 22.0696H17.9102C18.4136 22.0696 18.8964 22.2682 19.2524 22.6216C19.6084 22.975 19.8084 23.4543 19.8084 23.9541V28.031C19.8052 28.4637 19.9761 28.8797 20.2832 29.1868C20.5902 29.4939 21.0081 29.6666 21.4439 29.6666H24.0584C25.2795 29.6697 26.4517 29.1904 27.3162 28.3343C28.1808 27.4783 28.6667 26.3159 28.6667 25.1037V13.4891C28.6666 12.5099 28.2294 11.581 27.4728 10.9528L18.5787 3.90107C17.0316 2.66466 14.8148 2.70458 13.3139 3.99588L4.62269 10.9528C3.83033 11.5625 3.35675 12.4941 3.33334 13.4891V25.0918C3.33334 27.6184 5.39652 29.6666 7.94158 29.6666H10.4964C11.4016 29.6666 12.1373 28.9415 12.1439 28.0429L12.1797 28.031Z" fill="#0D2C6C"/>
</svg>
