<svg width="34" height="25" viewBox="0 0 34 25" fill="none" xmlns="http://www.w3.org/2000/svg">
<path d="M21.6767 12.5703C21.589 12.5844 21.5006 12.5914 21.412 12.5915C21.1288 12.5939 20.8496 12.5161 20.6006 12.3652L20.4175 12.7448L21.298 13.2798C21.6034 13.4653 21.9458 13.5613 22.2933 13.5588C22.3997 13.5585 22.506 13.5502 22.6113 13.5337L25.4246 13.0915L23.9722 12.2097L21.6767 12.5703Z" fill="#0D2C6C"/>
<path d="M33.994 3.00347V2.96978C33.994 2.94042 33.9913 2.91149 33.9894 2.88342C33.9894 2.88342 33.9894 2.85967 33.9894 2.85146C33.9863 2.81346 33.9828 2.77546 33.9786 2.73746V2.72234C33.9747 2.69039 33.9705 2.65843 33.9658 2.62604L33.9608 2.59366C33.9566 2.56516 33.9515 2.53665 33.9465 2.50729L33.9419 2.48224C33.9349 2.4464 33.9276 2.41099 33.9195 2.37644L33.9141 2.35312C33.9075 2.32505 33.9005 2.29742 33.8932 2.26978L33.8847 2.23869C33.8766 2.21019 33.8685 2.18212 33.8596 2.15232L33.8557 2.13937L33.853 2.13116C33.8387 2.08798 33.8233 2.04264 33.8055 1.99557L33.7993 1.97872C33.7831 1.93554 33.7649 1.89236 33.7464 1.85133C33.7464 1.84701 33.7429 1.8427 33.7406 1.83708C33.739 1.83401 33.7376 1.83084 33.7363 1.82758C33.7213 1.79476 33.7054 1.76194 33.6892 1.72956L33.6811 1.71444C33.6672 1.68637 33.6521 1.65917 33.6366 1.63153L33.6293 1.61771L33.6235 1.60778C33.61 1.58446 33.5965 1.56157 33.5826 1.53912L33.5741 1.5253C33.5578 1.49939 33.5408 1.47348 33.5234 1.448L33.5203 1.44325L33.5057 1.42252L33.4709 1.37372C33.4643 1.36466 33.4574 1.35602 33.4508 1.34738C33.4392 1.33184 33.4276 1.31715 33.4122 1.29945L33.4025 1.28736L33.3936 1.27656L33.3596 1.2364C33.3596 1.2364 33.3445 1.2187 33.338 1.21179C33.3248 1.1971 33.3117 1.18242 33.2993 1.1686L33.2962 1.16515C33.2924 1.16083 33.2885 1.15651 33.2819 1.15003L33.2302 1.09735L33.2244 1.09174C33.2047 1.07274 33.1857 1.0546 33.1668 1.03819L33.1432 1.01789L33.1046 0.983778L33.0799 0.963913L33.0412 0.934116L33.0327 0.927207L33.0142 0.91382L32.9756 0.886182L32.947 0.866319L32.9083 0.839977C32.9045 0.837386 32.9006 0.834363 32.896 0.831772C32.8913 0.829181 32.8747 0.818385 32.8631 0.811475L31.9826 0.276001L31.7979 0.655152C31.8091 0.662061 31.8203 0.66897 31.8311 0.676311L31.867 0.700062L31.8898 0.71604L31.9204 0.737632L31.9424 0.754474L31.9733 0.778656L31.9934 0.795065C32.0038 0.803702 32.0139 0.812339 32.0258 0.823135L32.0432 0.837817L32.0861 0.877546L32.0946 0.887479L32.1012 0.892228C32.1135 0.904751 32.1263 0.917275 32.1398 0.930662L32.1533 0.945344L32.1862 0.981187L32.2028 1.00019C32.2121 1.01141 32.2217 1.02221 32.2306 1.03344L32.2476 1.0546C32.2573 1.06669 32.2669 1.07878 32.277 1.09217L32.2928 1.11333C32.3025 1.12628 32.3121 1.13967 32.3214 1.15306L32.3353 1.17249C32.3496 1.19365 32.3639 1.21567 32.3794 1.24072L32.3844 1.24892C32.396 1.26749 32.4072 1.28649 32.418 1.30549L32.4296 1.32579C32.4424 1.34825 32.4543 1.36897 32.4659 1.39316L32.4729 1.40654C32.4864 1.43332 32.4991 1.46009 32.5115 1.48816L32.5189 1.50457C32.5359 1.54257 32.5505 1.57841 32.5644 1.61426L32.5691 1.62764C32.5845 1.66824 32.5981 1.70667 32.6104 1.7451L32.6147 1.75935C32.6216 1.78267 32.629 1.80642 32.6352 1.82974L32.6425 1.85608C32.6487 1.8794 32.6545 1.90272 32.6603 1.9269L32.6649 1.94547C32.6715 1.97527 32.678 2.0055 32.6838 2.03616L32.6877 2.05775C32.6923 2.0815 32.6962 2.10525 32.7001 2.12987L32.7043 2.15794C32.7082 2.18471 32.7117 2.21191 32.7151 2.24128V2.25337C32.7186 2.28533 32.7213 2.31728 32.724 2.34924V2.37644C32.724 2.40149 32.7271 2.4261 32.7283 2.45201V2.48052C32.7283 2.51377 32.7283 2.54702 32.7283 2.58113L32.7186 8.32453C32.7186 8.36296 32.7186 8.4014 32.7163 8.4394V8.4692C32.7163 8.50417 32.7124 8.53872 32.7097 8.57499V8.58406C32.7066 8.6199 32.7028 8.65488 32.6985 8.69029C32.6943 8.7257 32.6892 8.76111 32.6838 8.79609L32.6792 8.82978C32.6715 8.87512 32.663 8.92132 32.6533 8.96753C32.6464 8.99992 32.639 9.03144 32.6313 9.06297L32.6263 9.08585C32.6162 9.12558 32.6054 9.16488 32.5942 9.20374L32.5884 9.22318C32.5791 9.25384 32.5699 9.2845 32.5594 9.31473L32.5471 9.35143C32.5386 9.37691 32.5297 9.40196 32.52 9.42743L32.5077 9.46069C32.4972 9.48789 32.486 9.51553 32.4752 9.54187L32.4651 9.56605C32.4509 9.60017 32.4358 9.63385 32.4203 9.6671L32.4087 9.69129C32.3987 9.71245 32.3883 9.73447 32.3778 9.75433C32.3527 9.80399 32.3295 9.84761 32.3075 9.88691L32.3048 9.89209C32.2824 9.93139 32.2573 9.97284 32.2275 10.0216L32.2051 10.0566C32.1827 10.0907 32.1591 10.1253 32.1352 10.159L32.1166 10.1853C32.0873 10.2259 32.0556 10.2669 32.0231 10.3071C32.005 10.3295 31.9868 10.3503 31.9675 10.374L31.959 10.3839C31.9358 10.4107 31.9122 10.4366 31.8879 10.4625L31.8636 10.4876L31.8126 10.5394L31.784 10.567C31.7681 10.5822 31.7519 10.5968 31.7364 10.6102C31.721 10.6236 31.7121 10.6323 31.6978 10.6435C31.6835 10.6547 31.6665 10.6703 31.6507 10.6832L31.6456 10.6875C31.6352 10.6966 31.6244 10.7052 31.6132 10.7143C31.602 10.7234 31.5927 10.7303 31.5823 10.7381L31.5745 10.7445L31.5108 10.7916L31.4722 10.8188C31.4509 10.8339 31.4289 10.8482 31.4072 10.862L31.396 10.8689C31.386 10.8754 31.3763 10.8819 31.3663 10.8875L31.3315 10.9082L31.3273 10.9108C31.3095 10.9212 31.2921 10.9311 31.2743 10.9406L31.2357 10.9617C31.2183 10.9708 31.2005 10.9799 31.182 10.9885L31.1433 11.0079L31.0885 11.0317L31.0475 11.0485C31.0286 11.0559 31.0089 11.0628 30.9907 11.0693L30.9799 11.0736L30.9505 11.084L30.8907 11.1025L30.8752 11.1068L30.852 11.1137C30.83 11.1198 30.8076 11.125 30.7848 11.1306L30.7523 11.1384C30.7168 11.1461 30.6839 11.1522 30.6515 11.1574L28.3363 11.521L26.5976 14.2113C26.586 14.229 26.5729 14.2476 26.5559 14.2696L26.547 14.2813C26.5327 14.2994 26.518 14.3162 26.5037 14.3313L26.4925 14.3426C26.4805 14.3547 26.4686 14.3659 26.4566 14.3767L26.4376 14.3927C26.4245 14.4039 26.4091 14.416 26.3955 14.4255L26.3897 14.4298C26.3762 14.4389 26.3623 14.4471 26.3484 14.4553L26.3268 14.4674L26.2935 14.4829L26.2723 14.4924C26.2599 14.4972 26.2476 14.5015 26.236 14.5049L26.2178 14.511C26.2 14.5161 26.1819 14.5202 26.1637 14.5231C26.1405 14.5266 26.1172 14.5285 26.0938 14.5287C26.021 14.5295 25.9491 14.5096 25.8851 14.4708L25.7928 14.6604L25.7004 14.8504L26.581 15.3859C26.702 15.4583 26.8371 15.4959 26.9743 15.4956C27.0157 15.4956 27.057 15.4925 27.098 15.4861C27.1293 15.4811 27.1604 15.4743 27.1911 15.4658L27.2162 15.458H27.2205C27.2413 15.4515 27.2618 15.4446 27.2823 15.4364C27.2919 15.433 27.3016 15.4286 27.3109 15.4243L27.3167 15.4217C27.3352 15.4135 27.3553 15.4049 27.3715 15.3954L27.4063 15.376H27.4105L27.4349 15.3621L27.4712 15.338L27.4786 15.3332C27.4952 15.3215 27.5114 15.3095 27.5284 15.2961C27.5342 15.2917 27.54 15.2866 27.5485 15.2788L27.5802 15.252L27.5983 15.236C27.608 15.227 27.6173 15.2175 27.6265 15.208L27.6354 15.1989L27.6563 15.1782C27.6737 15.1596 27.6907 15.1397 27.7065 15.1203L27.7166 15.1078L27.7332 15.0862C27.7397 15.0776 27.7463 15.0694 27.7529 15.0603C27.766 15.0421 27.7788 15.0231 27.7915 15.0037L29.4352 12.4624L31.5873 12.1242C31.6259 12.1182 31.6646 12.1109 31.7071 12.1018C31.7163 12.1018 31.7252 12.0975 31.7345 12.0953L31.7465 12.0923C31.7731 12.0862 31.7994 12.0798 31.8261 12.0724L31.8601 12.0625L31.8721 12.059C31.8956 12.0517 31.9192 12.0448 31.9428 12.037L31.9814 12.0236L31.9911 12.0202L32.0583 11.9951L32.1004 11.9778L32.107 11.9748L32.1711 11.9472L32.2194 11.9243L32.282 11.8932L32.3291 11.8682C32.35 11.8569 32.3709 11.8448 32.3913 11.8332L32.3968 11.8302C32.4099 11.8224 32.4234 11.8146 32.4354 11.806L32.4536 11.7956L32.4748 11.7818L32.4825 11.7762C32.5084 11.7602 32.5339 11.7434 32.5598 11.7261C32.5753 11.7157 32.5903 11.7049 32.6054 11.6941C32.6312 11.6766 32.6555 11.6584 32.6784 11.6397L32.6862 11.6341L32.7066 11.619L32.7244 11.6043L32.7673 11.5693C32.7855 11.5538 32.8036 11.5387 32.8218 11.5227L32.8639 11.4851L32.8728 11.4774L32.8925 11.4596L32.9195 11.4337L32.9516 11.4022C32.9717 11.3828 32.9902 11.3625 33.0107 11.3426L33.0494 11.3029C33.0737 11.277 33.0973 11.2506 33.122 11.2221L33.1309 11.2118C33.1494 11.1902 33.1695 11.1686 33.1857 11.1466C33.1888 11.1431 33.1917 11.1393 33.1942 11.1353C33.2329 11.0922 33.2665 11.0442 33.2997 10.9989L33.3075 10.9885C33.3117 10.9829 33.316 10.9764 33.3198 10.9704L33.3225 10.9669C33.3492 10.9289 33.3762 10.8896 33.4021 10.8495L33.4052 10.8447C33.4093 10.839 33.4136 10.8329 33.418 10.8266L33.4284 10.8093C33.4632 10.7536 33.4918 10.7061 33.5157 10.6638C33.5157 10.6638 33.5211 10.6547 33.5223 10.6521C33.5474 10.6089 33.5733 10.5588 33.6023 10.5014L33.6111 10.4841C33.6181 10.4707 33.6243 10.4574 33.6308 10.4435L33.6498 10.4038C33.666 10.3684 33.6819 10.333 33.6981 10.2959L33.712 10.2617C33.7246 10.2306 33.7375 10.1996 33.7506 10.1685C33.7556 10.1559 33.7784 10.0955 33.7784 10.0955L33.79 10.0609C33.79 10.0609 33.8067 10.013 33.8101 10.0013C33.8217 9.9668 33.8325 9.93225 33.843 9.89684L33.8511 9.87093C33.8635 9.82775 33.875 9.78456 33.8862 9.74138C33.8862 9.73533 33.8924 9.71461 33.8924 9.71461C33.9005 9.68049 33.9087 9.64637 33.9168 9.60881V9.60319C33.9276 9.5518 33.9372 9.49955 33.9457 9.4473C33.9457 9.43823 33.9485 9.42959 33.95 9.42053V9.40887C33.9562 9.36827 33.962 9.32768 33.967 9.28623L33.9693 9.26895C33.9732 9.23441 33.9767 9.19986 33.9797 9.16488V9.15193C33.9832 9.1122 33.9855 9.07204 33.9875 9.03144V8.99776C33.9894 8.95458 33.9906 8.90923 33.9906 8.86475L34.0002 3.12136C33.996 3.0812 33.9952 3.04233 33.994 3.00347Z" fill="#0D2C6C"/>
<path d="M26.0867 14.9648C25.9717 14.9656 25.858 14.939 25.7529 14.8869C25.6479 14.8348 25.554 14.7583 25.4773 14.6626L23.8623 12.6627L21.731 12.9983C21.6255 13.0147 21.5192 13.0231 21.4126 13.0233C21.1401 13.0252 20.87 12.9665 20.618 12.8507C20.3659 12.7349 20.137 12.5643 19.9444 12.3488C19.514 11.8669 19.2779 11.1884 19.2791 10.4383L19.2887 4.69495C19.2914 3.10494 20.3706 1.64188 21.6951 1.43374L30.6641 0.0250942C30.7695 0.0084423 30.8759 7.29136e-05 30.9824 4.76913e-05C31.255 -0.00191481 31.5251 0.0567087 31.7772 0.172509C32.0292 0.288309 32.2582 0.458973 32.4507 0.674573C32.8807 1.15607 33.1168 1.83448 33.1156 2.58458L33.106 8.32797C33.1037 9.91842 32.0241 11.3815 30.7 11.5892L28.5471 11.9286L26.9038 14.47C26.823 14.599 26.7198 14.7085 26.6003 14.7921C26.4808 14.8756 26.3475 14.9314 26.2084 14.9562C26.1674 14.9627 26.1261 14.966 26.0847 14.9661L26.0867 14.9648Z" fill="#0D2C6C"/>
<path d="M30.6912 0.239254L21.7218 1.6479C20.4854 1.84179 19.4843 3.20639 19.4809 4.69579L19.4712 10.4392C19.4689 11.9286 20.4677 12.9788 21.7021 12.7849L23.9362 12.4338L25.6208 14.5196C25.6907 14.606 25.7788 14.6716 25.8771 14.7104C25.9754 14.7491 26.0808 14.7598 26.1837 14.7416C26.2968 14.7207 26.4049 14.6746 26.5017 14.6061C26.5985 14.5375 26.6819 14.4479 26.7471 14.3425L28.439 11.7269L30.6727 11.3758C31.9072 11.1819 32.9098 9.81734 32.9137 8.32794L32.9229 2.58455C32.9245 1.09515 31.9257 0.0453603 30.6912 0.239254Z" fill="#0D2C6C"/>
<path style="mix-blend-mode:screen" opacity="0.2" d="M32.7286 2.5841L32.7221 6.54488L19.6694 8.08524L19.6748 4.69793C19.6772 3.31606 20.6076 2.04301 21.7485 1.8638L30.7179 0.455156C30.8056 0.441084 30.894 0.434013 30.9826 0.433996C31.2041 0.432455 31.4238 0.480102 31.6287 0.574172C31.8337 0.668243 32.0199 0.806864 32.1765 0.981994C32.5335 1.37928 32.7294 1.9493 32.7286 2.5841Z" fill="#0D2C6C"/>
<path d="M26.3336 6.66015C26.3606 6.65583 26.3873 6.65108 26.4135 6.64503L26.4398 6.63899C26.4576 6.63467 26.4754 6.63078 26.4928 6.6256C26.5032 6.62301 26.5132 6.61956 26.5237 6.61653L26.5708 6.60185L26.6033 6.59062C26.6179 6.58501 26.633 6.57983 26.6477 6.57378L26.6805 6.5604L26.7234 6.54183L26.7559 6.52671L26.798 6.50555L26.8312 6.48742L26.8729 6.4641L26.9035 6.44596L26.9158 6.43862L26.9355 6.42566C26.9525 6.41487 26.9699 6.40364 26.9869 6.39198L27.0171 6.37039C27.0341 6.3583 27.0507 6.34621 27.0669 6.33368C27.0731 6.32893 27.0797 6.32461 27.0855 6.31986L27.0974 6.30993L27.1268 6.28575L27.1635 6.25466L27.1921 6.22875L27.2114 6.2119L27.2207 6.2024C27.2524 6.17261 27.2833 6.14195 27.313 6.10999L27.3173 6.10567L27.3277 6.09401C27.3521 6.06724 27.3756 6.04003 27.3988 6.01197L27.41 5.99944L27.4158 5.99167C27.4409 5.96101 27.4649 5.92948 27.4884 5.8971L27.4927 5.89192L27.5027 5.87723C27.5213 5.85089 27.5394 5.82412 27.5572 5.79734L27.5677 5.7818L27.5746 5.77014C27.5959 5.73689 27.6163 5.7032 27.636 5.66866C27.6361 5.66751 27.6361 5.66635 27.636 5.6652C27.655 5.63195 27.6747 5.5974 27.6905 5.56286L27.6975 5.54947C27.7002 5.54429 27.7025 5.53867 27.7052 5.53306C27.7207 5.50111 27.7357 5.46829 27.75 5.43547L27.7562 5.42251C27.7561 5.42122 27.7561 5.41992 27.7562 5.41863C27.7728 5.3789 27.7887 5.33874 27.8033 5.29814L27.8084 5.28519C27.8126 5.27396 27.8165 5.2623 27.8203 5.25064L27.83 5.22171C27.8377 5.19839 27.8451 5.17464 27.8524 5.15089L27.8571 5.13534V5.13275C27.8656 5.10339 27.8737 5.07359 27.881 5.04379C27.881 5.03818 27.8833 5.033 27.8849 5.02738C27.8907 5.00363 27.8965 4.97988 27.9015 4.9557C27.9013 4.95427 27.9013 4.95281 27.9015 4.95138C27.9088 4.91597 27.9154 4.88013 27.9216 4.84429C27.9216 4.83565 27.9239 4.82658 27.9254 4.81794C27.9297 4.79074 27.9336 4.7631 27.9366 4.73546C27.9366 4.73114 27.9366 4.72726 27.9366 4.72337C27.9366 4.71948 27.9366 4.70869 27.9366 4.70135C27.9397 4.67069 27.9424 4.6396 27.9444 4.6085C27.9444 4.59684 27.9444 4.58519 27.9467 4.57309C27.949 4.53207 27.9506 4.49105 27.9506 4.45002C27.9506 4.409 27.9506 4.37315 27.9475 4.33515C27.9475 4.32522 27.9475 4.31572 27.9475 4.30579C27.9457 4.27124 27.943 4.23713 27.9394 4.20344V4.19351C27.9355 4.15724 27.9305 4.12096 27.9247 4.08555L27.92 4.05835C27.9146 4.02769 27.9088 3.99703 27.9023 3.9668L27.8988 3.95168C27.8911 3.91757 27.8826 3.88432 27.8733 3.85107L27.8659 3.82645C27.8625 3.81522 27.8594 3.80356 27.8559 3.79234C27.8524 3.78111 27.8482 3.77074 27.8443 3.75995C27.8404 3.74915 27.8335 3.72756 27.8277 3.71158C27.8219 3.69561 27.8134 3.67401 27.8057 3.65545C27.7979 3.63688 27.7933 3.62478 27.7867 3.60967C27.784 3.60362 27.7821 3.59758 27.7794 3.59197C27.7709 3.57297 27.762 3.55483 27.7531 3.53669C27.7504 3.53194 27.7485 3.52676 27.7462 3.52201C27.733 3.49653 27.7199 3.47148 27.7075 3.44687L27.7029 3.43953C27.6816 3.40282 27.6596 3.36741 27.6364 3.3333C27.6354 3.33196 27.6345 3.33051 27.6337 3.32898C27.6291 3.32207 27.6237 3.31602 27.619 3.30955C27.602 3.28536 27.5847 3.26204 27.5665 3.23916C27.5638 3.2357 27.5611 3.23138 27.558 3.22793C27.5549 3.22447 27.5452 3.21368 27.5391 3.20591C27.524 3.18863 27.5093 3.17136 27.4939 3.15495L27.4803 3.1394C27.4745 3.13336 27.468 3.12818 27.4622 3.12213C27.4475 3.10745 27.4328 3.09277 27.4177 3.07895L27.3996 3.06124L27.3834 3.04785C27.3683 3.0349 27.3524 3.02194 27.3366 3.00985C27.3293 3.00381 27.3223 2.9969 27.3146 2.99128C27.3069 2.98567 27.3053 2.98524 27.3011 2.98178C27.2844 2.96969 27.2671 2.95803 27.2501 2.94637L27.2246 2.92867L27.2029 2.91528L26.9386 2.75464C26.9549 2.76457 26.9703 2.77537 26.9858 2.78573C27.0012 2.79609 27.0202 2.80905 27.0368 2.82114L27.0727 2.84921C27.0882 2.8613 27.104 2.87426 27.1191 2.88721L27.1535 2.9183C27.1685 2.93212 27.1832 2.94681 27.1979 2.96149L27.2296 2.99431C27.245 3.01072 27.2601 3.02799 27.2748 3.04526L27.3026 3.07851C27.3204 3.1014 27.3378 3.12472 27.3548 3.1489L27.3721 3.17265C27.3953 3.20677 27.4177 3.24218 27.4386 3.27889C27.4541 3.30609 27.4691 3.3333 27.4834 3.36137L27.4904 3.37605C27.502 3.3998 27.5132 3.42441 27.524 3.44903C27.5306 3.46414 27.5367 3.47969 27.5429 3.4948C27.5491 3.50992 27.558 3.53194 27.565 3.55094C27.5719 3.56994 27.5762 3.5829 27.582 3.59931C27.5877 3.61572 27.5966 3.64249 27.6032 3.66581C27.6055 3.67401 27.6082 3.68222 27.6105 3.69042C27.6198 3.72368 27.6287 3.75693 27.6364 3.79104C27.6364 3.79622 27.6384 3.80141 27.6395 3.80659C27.6461 3.83638 27.6519 3.86704 27.6573 3.8977C27.6573 3.90677 27.6608 3.91584 27.6619 3.92491C27.6677 3.96075 27.6728 3.99659 27.677 4.03287C27.677 4.03632 27.677 4.03935 27.677 4.0428C27.6803 4.07648 27.6831 4.1106 27.6851 4.14515C27.6851 4.15508 27.6851 4.16458 27.6851 4.17451C27.6851 4.21251 27.6882 4.25051 27.6882 4.28938C27.6882 4.32824 27.6882 4.37143 27.6843 4.41245C27.6843 4.42454 27.6843 4.4362 27.6824 4.44786C27.6801 4.47895 27.6774 4.51005 27.6743 4.54071L27.6708 4.57482C27.6673 4.60246 27.6635 4.6301 27.6592 4.6573C27.6592 4.66594 27.6569 4.67501 27.6554 4.68364C27.6496 4.71949 27.6426 4.75533 27.6353 4.79074C27.6299 4.81622 27.6241 4.84169 27.6179 4.86674C27.6179 4.87192 27.6156 4.87754 27.614 4.88315C27.6063 4.91381 27.5982 4.94447 27.5893 4.9747L27.5847 4.99024C27.5777 5.014 27.5704 5.03775 27.5626 5.06107C27.5592 5.07057 27.5561 5.08007 27.5526 5.09C27.5491 5.09993 27.5414 5.12152 27.5356 5.1375C27.5209 5.17809 27.5051 5.21825 27.4884 5.25798L27.4811 5.27482C27.4664 5.30764 27.4514 5.34046 27.4359 5.37242L27.4212 5.40222C27.4038 5.43676 27.3857 5.47131 27.3667 5.50499V5.50888C27.347 5.54343 27.3281 5.57711 27.3057 5.61036L27.2879 5.63713C27.2707 5.66419 27.2525 5.69097 27.2334 5.71746L27.2191 5.73775C27.196 5.76971 27.1716 5.80123 27.1465 5.83189L27.1299 5.85219C27.1063 5.88026 27.0828 5.90746 27.0584 5.93424L27.0437 5.95021C27.014 5.98217 26.9831 6.01283 26.9514 6.04263L26.9232 6.06897L26.8942 6.09488L26.8556 6.12597C26.8459 6.13417 26.8362 6.14238 26.8262 6.15015L26.7957 6.1739C26.7794 6.18643 26.7628 6.19852 26.7462 6.21061L26.7157 6.2322C26.6987 6.24386 26.6817 6.25509 26.6643 6.26588L26.6322 6.28618L26.6017 6.30432C26.5878 6.31209 26.5743 6.32029 26.56 6.32764L26.5283 6.34448L26.4862 6.36564L26.4537 6.38075L26.4108 6.39932L26.378 6.41271C26.3633 6.41875 26.3486 6.42394 26.3336 6.42955L26.3011 6.44078L26.254 6.45546C26.2439 6.45848 26.2335 6.46194 26.2231 6.46453C26.2057 6.46971 26.1879 6.4736 26.1701 6.47791L26.1442 6.48439C26.1176 6.49001 26.0909 6.49519 26.0643 6.49907C25.767 6.54976 25.4631 6.49142 25.198 6.33282L25.4623 6.49346C25.7288 6.65343 26.0346 6.71195 26.3336 6.66015Z" fill="#0D2C6C"/>
<path d="M29.201 8.06921C29.201 8.05971 29.201 8.05064 29.199 8.04114C29.1967 8.01696 29.194 7.99278 29.1909 7.96903L29.1874 7.94355C29.1824 7.91289 29.177 7.88223 29.1701 7.85286C29.1701 7.84855 29.1677 7.84423 29.167 7.83991C29.1608 7.81443 29.1538 7.78982 29.1465 7.7652C29.1456 7.76123 29.1444 7.75734 29.143 7.75354C29.1411 7.74663 29.1384 7.73972 29.1361 7.73281L29.1256 7.70259L29.1117 7.66718C29.1079 7.65768 29.104 7.64774 29.0997 7.63824L29.0951 7.62702C29.0932 7.6227 29.0908 7.61924 29.0889 7.61492C29.0781 7.5916 29.0665 7.56872 29.0541 7.54669L29.0487 7.5359C29.0478 7.53421 29.0468 7.53262 29.0456 7.53115C29.0325 7.50783 29.0186 7.48537 29.0039 7.46421C29.0038 7.46321 29.0038 7.46219 29.0039 7.46119L28.9946 7.4491C28.9838 7.43398 28.973 7.4193 28.9614 7.40591L28.956 7.39901L28.944 7.38519L28.9158 7.3528L28.9069 7.3433L28.8957 7.33207L28.8675 7.30487L28.8563 7.29407L28.8459 7.28543L28.8165 7.26125C28.8119 7.2578 28.8076 7.25348 28.8026 7.25002L28.7941 7.24398C28.7837 7.2362 28.7729 7.22886 28.762 7.22152L28.7458 7.21029L28.7323 7.20166L28.468 7.04102L28.4978 7.06088C28.5086 7.06822 28.5194 7.07556 28.5298 7.08333L28.5526 7.10061L28.582 7.12479L28.6032 7.14422L28.6314 7.17143L28.6515 7.19216L28.6797 7.22455C28.6855 7.23145 28.6917 7.23836 28.6971 7.24527C28.7087 7.25995 28.7195 7.27464 28.7304 7.28846L28.7412 7.30357C28.7559 7.32516 28.7698 7.34675 28.7833 7.37051C28.786 7.37569 28.7887 7.38087 28.7918 7.38605C28.8038 7.40807 28.8154 7.42924 28.8262 7.45428L28.837 7.4776C28.8412 7.4871 28.8451 7.49703 28.849 7.50653L28.8629 7.54194L28.8733 7.57217L28.8838 7.60456C28.8911 7.62917 28.898 7.65379 28.9042 7.67927C28.9042 7.68359 28.9065 7.6879 28.9073 7.69222C28.9143 7.72159 28.9201 7.75225 28.9247 7.78291L28.9282 7.80838C28.9313 7.83214 28.934 7.85632 28.9363 7.8805L28.9386 7.90857C28.9386 7.94096 28.9421 7.97378 28.9421 8.00746L28.9398 9.38933L23.1897 10.2923L23.454 10.4529L29.2021 9.54997L29.2044 8.1681C29.2048 8.13442 29.2033 8.1016 29.201 8.06921Z" fill="#0D2C6C"/>
<path d="M26.0697 6.49824C26.9645 6.3579 27.6925 5.36813 27.6925 4.28855C27.6925 3.20896 26.9699 2.44677 26.0747 2.58755C25.1795 2.72833 24.4519 3.71766 24.4519 4.79768C24.4519 5.8777 25.174 6.63902 26.0697 6.49824Z" fill="white"/>
<path d="M27.9205 6.93529L24.2159 7.51697C23.6518 7.6055 23.1932 8.2295 23.192 8.9105L23.1897 10.2924L28.9382 9.38941L28.9405 8.00754C28.9417 7.32654 28.485 6.84634 27.9205 6.93529Z" fill="white"/>
<path d="M14.4446 11.3854C14.1431 11.6309 13.7786 11.7609 13.4056 11.7559H11.0873L9.7605 12.8549H12.6015C13.0574 12.8601 13.5025 12.7003 13.8704 12.3993L14.6756 11.7321L14.4446 11.3854Z" fill="url(#paint0_linear_468_21871)"/>
<path d="M9.48276 14.2955C9.4042 14.3591 9.30928 14.3925 9.21229 14.3905C9.12378 14.3872 9.03674 14.3642 8.95632 14.3227C8.87589 14.2813 8.8037 14.2222 8.744 14.1491L6.68654 11.7559H4.34857C3.19639 11.7559 2.11685 10.6413 1.9422 9.27156L1.21775 3.5856C1.11072 2.74525 1.36727 1.97788 1.90434 1.53309L1.78843 1.36036L1.67251 1.18762L0.866915 1.85481C0.213936 2.39546 -0.0990306 3.31527 0.0277014 4.31626L0.752161 10.0018C0.953077 11.5763 2.20417 12.8571 3.54104 12.8571H5.71441L7.65828 15.1177C7.75411 15.2328 7.86963 15.3252 7.99798 15.3894C8.12634 15.4536 8.26493 15.4884 8.40554 15.4917C8.5396 15.4924 8.67194 15.4579 8.79191 15.3911C8.83247 15.3683 8.87125 15.3417 8.90783 15.3116L9.71304 14.6444L9.59713 14.4717L9.48276 14.2955Z" fill="#0D2C6C"/>
<path d="M9.2122 14.8219C9.07166 14.8186 8.93314 14.7838 8.80485 14.7195C8.67656 14.6553 8.56111 14.5629 8.46533 14.4479L6.52185 12.1877H4.34847C3.01122 12.1877 1.75974 10.9069 1.5596 9.33242L0.835138 3.64646C0.733134 2.84843 0.920141 2.07545 1.34709 1.52486C1.74467 1.0127 2.31303 0.730713 2.94322 0.730713H12.0007C13.3379 0.730713 14.5894 2.01153 14.7896 3.58557L15.514 9.27153C15.616 10.0696 15.429 10.843 15.0017 11.3931C14.6041 11.9057 14.0357 12.1877 13.4056 12.1877H11.2527L9.90227 14.4199C9.82617 14.5457 9.72324 14.6483 9.60276 14.7185C9.48228 14.7887 9.34805 14.8242 9.2122 14.8219Z" fill="#0D2C6C"/>
<path d="M15.3227 9.30179L14.5983 3.61626C14.4105 2.14197 13.246 0.946655 12.0007 0.946655H2.94319C1.69635 0.946655 0.838201 2.14197 1.02637 3.61626L1.75083 9.30179C1.93861 10.7765 3.10315 11.9718 4.34845 11.9718H6.60412L8.60479 14.299C8.68245 14.393 8.77624 14.4687 8.88058 14.5214C8.98492 14.5742 9.09769 14.6029 9.21217 14.606C9.31639 14.6081 9.41943 14.5811 9.51194 14.5274C9.60445 14.4737 9.68349 14.395 9.7419 14.2985L11.1499 11.9718H13.4055C14.6524 11.9718 15.5101 10.7765 15.3227 9.30179Z" fill="#0D2C6C"/>
<path style="mix-blend-mode:screen" opacity="0.2" d="M14.8653 7.24283L1.70564 7.41556L1.21725 3.58562C1.13032 2.90332 1.27985 2.27025 1.63918 1.80776C1.96219 1.3919 2.42546 1.1626 2.94359 1.1626H12.0003C13.1529 1.1626 14.2324 2.27673 14.407 3.64651L14.8653 7.24283Z" fill="#0D2C6C"/>
<path d="M7.72528 6.84074C8.02585 6.84467 8.31947 6.73968 8.56217 6.54148L8.80366 6.34111C8.56111 6.53937 8.26763 6.64452 7.96715 6.6408C7.06264 6.6408 6.21956 5.77368 6.08356 4.70489C5.99585 4.01395 6.22265 3.40939 6.63685 3.06824L6.39536 3.26818C5.98117 3.61149 5.75397 4.21605 5.84207 4.90483C5.97807 5.97405 6.82115 6.84074 7.72528 6.84074Z" fill="#0D2C6C"/>
<path d="M5.48651 9.94958L5.31186 8.58153C5.29505 8.45255 5.29635 8.32142 5.31573 8.19288C5.32695 8.12133 5.34442 8.05118 5.36789 7.98344C5.38299 7.93978 5.40081 7.89736 5.42121 7.85648C5.44117 7.81619 5.46363 7.77752 5.48844 7.74075C5.52513 7.68622 5.56697 7.63628 5.61324 7.59177C5.6287 7.57709 5.64454 7.56283 5.66076 7.54858L5.41928 7.74852C5.15809 7.96444 5.01513 8.34618 5.07154 8.78061L5.24579 10.1487H11.0492L11.2911 9.94829L5.48651 9.94958Z" fill="#0D2C6C"/>
<path d="M7.96713 6.64081C8.87125 6.64081 9.49332 5.77369 9.35809 4.7049C9.22286 3.63611 8.37785 2.76855 7.47372 2.76855C6.5696 2.76855 5.94714 3.63741 6.08276 4.7049C6.21838 5.77239 7.06262 6.64081 7.96713 6.64081Z" fill="white"/>
<path d="M11.1164 8.58145C11.0306 7.90735 10.4982 7.36108 9.92904 7.36108H6.18851C5.61822 7.36108 5.22604 7.90735 5.31182 8.58145L5.48646 9.9495H11.291L11.1164 8.58145Z" fill="white"/>
<path d="M17.2893 23.6608L15.5835 21.5478L14.6739 20.9946L14.4382 21.3293L16.1221 23.4155C16.1837 23.4924 16.2566 23.5569 16.3377 23.6064L17.2186 24.1418L17.4033 23.761C17.3606 23.7349 17.3221 23.701 17.2893 23.6608Z" fill="#0D2C6C"/>
<path d="M22.6219 9.02974C22.5987 9.01549 22.5751 9.00211 22.5512 8.98872L22.5384 8.98224C22.5133 8.96842 22.4878 8.95547 22.4611 8.94295L22.4329 8.92999C22.4125 8.92049 22.392 8.91099 22.3684 8.90106L22.3414 8.88983C22.319 8.88076 22.2965 8.87212 22.2738 8.86392L22.2506 8.85572C22.2208 8.84535 22.1911 8.83585 22.1617 8.82721L22.1547 8.82506L22.1381 8.82074C22.1142 8.81426 22.0902 8.80778 22.0663 8.80217L22.0346 8.79526C22.0137 8.79051 21.9925 8.78662 21.9701 8.7823L21.9376 8.77669C21.9148 8.7728 21.8924 8.76978 21.8688 8.76676L21.8414 8.7633C21.8093 8.75985 21.7773 8.75683 21.7436 8.75467H21.7309C21.7031 8.75467 21.6753 8.75208 21.647 8.75208H21.615C21.5926 8.75208 21.5698 8.75208 21.5474 8.75208H21.5114L21.4419 8.75726L21.4098 8.76028C21.3762 8.76373 21.3426 8.76805 21.3086 8.77323L12.3419 10.1853C12.3075 10.1905 12.2704 10.1974 12.2291 10.2061L12.1966 10.2134C12.1688 10.2199 12.1406 10.2268 12.1136 10.2341L12.083 10.2423C12.0444 10.2536 12.0085 10.2644 11.9748 10.276L11.9594 10.2816C11.9285 10.2924 11.8972 10.3041 11.8663 10.3162L11.835 10.3291C11.8075 10.3404 11.7805 10.352 11.7535 10.3645L11.7279 10.3762C11.6959 10.3913 11.6642 10.4069 11.631 10.4241L11.6259 10.4272L11.59 10.447C11.5664 10.46 11.5429 10.4729 11.5193 10.4868L11.4876 10.5062L11.478 10.5122C11.4567 10.5252 11.4355 10.5386 11.415 10.552L11.3721 10.5809L11.3118 10.6241L11.2705 10.6547L11.2624 10.6608L11.2415 10.6763L11.2164 10.6962L11.1805 10.7251C11.1499 10.7502 11.1202 10.7752 11.0904 10.8016L11.0788 10.8124C11.0533 10.8352 11.0278 10.859 11.0016 10.8827L10.9509 10.9315L10.9363 10.9471L10.9324 10.9514C10.903 10.9812 10.8741 11.0123 10.8455 11.0438L10.818 11.074C10.7817 11.1172 10.7465 11.1574 10.7141 11.1984L10.7075 11.2062L10.6948 11.223L10.6925 11.2265C10.6646 11.2619 10.638 11.2982 10.6117 11.3344L10.5823 11.3776C10.5568 11.4143 10.5321 11.4515 10.5078 11.4895L10.5047 11.4942L10.4935 11.5111L10.4714 11.5473C10.4544 11.5754 10.4374 11.6035 10.4216 11.6337C10.4154 11.6436 10.4096 11.654 10.4038 11.6648C10.3845 11.6985 10.3652 11.733 10.347 11.7697L10.3443 11.7745C10.3289 11.8047 10.3134 11.8349 10.2991 11.8656L10.2899 11.885L10.274 11.9196L10.2694 11.9299C10.2578 11.9554 10.2462 11.9809 10.2354 12.0059C10.2284 12.0219 10.2218 12.0379 10.2153 12.0534C10.2045 12.0794 10.194 12.1057 10.184 12.132C10.184 12.132 10.1708 12.1657 10.1662 12.1782C10.1554 12.2076 10.145 12.237 10.1345 12.2668L10.1183 12.3138L10.1044 12.357L10.0932 12.3933C10.0882 12.4088 10.0835 12.4244 10.0793 12.4391C10.075 12.4538 10.0688 12.4766 10.0638 12.4952L10.0538 12.5324C10.0499 12.5479 10.0457 12.563 10.0418 12.5786C10.0379 12.5941 10.0325 12.6179 10.0279 12.6377L10.0198 12.674C10.0163 12.6891 10.0128 12.7038 10.0097 12.7193C10.0066 12.7349 10.002 12.7599 9.99814 12.7807L9.99157 12.8161C9.98886 12.8312 9.98577 12.8467 9.98345 12.8618C9.98113 12.877 9.97688 12.905 9.97379 12.9249L9.96838 12.9629C9.96645 12.9771 9.96413 12.9918 9.9622 13.0061C9.9595 13.0298 9.95718 13.054 9.95447 13.0778L9.951 13.111C9.951 13.1248 9.94829 13.1382 9.94713 13.152C9.94481 13.1805 9.94288 13.2095 9.94134 13.2384V13.2656C9.94134 13.2768 9.94134 13.2876 9.93941 13.2989C9.93709 13.3485 9.93593 13.3986 9.93593 13.447L9.92627 19.1904C9.92627 19.7867 10.0739 20.3382 10.3551 20.7856C10.4122 20.8767 10.475 20.9633 10.5429 21.0447C10.5595 21.065 10.5769 21.0848 10.5943 21.1043C10.6812 21.2012 10.7756 21.2894 10.8764 21.3677C10.8965 21.3832 10.915 21.3983 10.9374 21.413C10.9788 21.4428 11.0217 21.4709 11.0642 21.4968L11.9447 22.0323L12.0371 21.8427L12.1294 21.6531C11.5421 21.296 11.192 20.5757 11.1936 19.7271L11.2029 13.9837C11.2029 13.9406 11.2029 13.8974 11.206 13.8542C11.206 13.8477 11.206 13.8412 11.206 13.8348L11.2083 13.7994C11.2083 13.7752 11.211 13.7506 11.2129 13.7268C11.2129 13.7177 11.2129 13.7087 11.2156 13.6996L11.2199 13.659C11.2218 13.6391 11.2237 13.6197 11.226 13.5998L11.2307 13.5683L11.2369 13.5251C11.2392 13.5079 11.2415 13.491 11.2442 13.4733C11.2461 13.4625 11.2485 13.4517 11.2504 13.4405L11.2581 13.3973C11.2612 13.3813 11.2639 13.3649 11.2674 13.3485C11.2709 13.3321 11.2724 13.3256 11.2751 13.3144L11.2844 13.2734C11.2879 13.2574 11.2913 13.2419 11.2952 13.2259C11.2991 13.2099 11.3014 13.2017 11.3049 13.19L11.3145 13.1538C11.3188 13.1374 11.323 13.1209 11.3277 13.1045C11.3323 13.0881 11.3346 13.0816 11.3385 13.07L11.3505 13.0307C11.3551 13.0156 11.3597 13 11.3648 12.9853L11.3767 12.9517C11.3856 12.9258 11.3945 12.8998 11.4042 12.8744C11.408 12.8636 11.4123 12.8528 11.4165 12.842L11.4196 12.8338C11.4285 12.8109 11.4374 12.788 11.4467 12.7655C11.4528 12.7517 11.4586 12.7375 11.4644 12.7224C11.4741 12.6999 11.4841 12.6792 11.4946 12.6546L11.4969 12.6494C11.5019 12.6382 11.5069 12.6269 11.5124 12.6157C11.5274 12.5837 11.5433 12.5518 11.5595 12.5203V12.5172C11.5761 12.4853 11.5931 12.4533 11.6105 12.4227L11.6259 12.3955C11.6402 12.3704 11.6549 12.3458 11.6704 12.3208L11.6831 12.3L11.7021 12.2707C11.7233 12.2374 11.745 12.2046 11.7674 12.1726L11.7929 12.1364C11.8157 12.104 11.8392 12.0724 11.8632 12.0422L11.881 12.0185C11.9099 11.9822 11.9408 11.9451 11.9733 11.9084L11.9973 11.8816C12.023 11.8545 12.0481 11.8277 12.0726 11.8013L12.0807 11.7931L12.1116 11.762L12.1333 11.7412C12.1549 11.7201 12.1769 11.698 12.2001 11.6786L12.2094 11.6704C12.2349 11.6475 12.2608 11.6272 12.2867 11.6048L12.3087 11.5871C12.3268 11.5724 12.3473 11.5581 12.3643 11.5439L12.401 11.5167C12.418 11.5046 12.435 11.4925 12.452 11.4813L12.4605 11.4752L12.4887 11.4562L12.5432 11.4217L12.5533 11.4156L12.5788 11.4001C12.5988 11.388 12.6174 11.3772 12.6386 11.366L12.6699 11.3487C12.6985 11.3336 12.7271 11.3193 12.7569 11.3055L12.7781 11.2956C12.8009 11.2852 12.8241 11.2753 12.8473 11.2658L12.8739 11.2546C12.9002 11.2442 12.9265 11.2347 12.9512 11.2256L12.964 11.2209C12.9941 11.2105 13.0246 11.2014 13.0555 11.1924L13.0807 11.1859C13.1038 11.1794 13.1274 11.1738 13.1506 11.1682L13.1784 11.1621C13.2097 11.1557 13.241 11.1492 13.2727 11.1444L22.2436 9.73925C22.2718 9.73493 22.3 9.73147 22.3282 9.72845L22.3545 9.72586L22.4125 9.72154H22.4418H22.4975H22.5249C22.5477 9.72154 22.5709 9.72154 22.5948 9.7237H22.6057C22.6323 9.7237 22.659 9.72759 22.6829 9.73061L22.7065 9.73364C22.725 9.73579 22.7451 9.73838 22.7629 9.74184L22.7896 9.74616L22.841 9.75652L22.8672 9.76257C22.8869 9.76689 22.9059 9.77207 22.9256 9.77768L22.9426 9.782C22.9677 9.78934 22.9924 9.79711 23.0164 9.80575L23.0361 9.81266L23.0909 9.83382L23.1149 9.84375C23.1315 9.85066 23.1481 9.85844 23.1674 9.86707L23.1872 9.87657C23.208 9.8865 23.2285 9.8973 23.249 9.9081L23.2567 9.91241C23.2768 9.92321 23.2953 9.93487 23.3166 9.94696L23.4089 9.75695L23.5013 9.56738L22.6219 9.02974Z" fill="#0D2C6C"/>
<path d="M17.6122 24.251C17.4973 24.2517 17.3835 24.2252 17.2785 24.173C17.1734 24.1209 17.0795 24.0445 17.0029 23.9487L15.3878 21.9485L13.2558 22.2832C13.1503 22.2998 13.0439 22.3082 12.9374 22.3082C12.6649 22.3102 12.3947 22.2515 12.1427 22.1357C11.8906 22.0199 11.6617 21.8493 11.4692 21.6337C11.0391 21.1522 10.8027 20.4738 10.8042 19.7237L10.8135 13.9803C10.8162 12.3903 11.8953 10.9272 13.2195 10.7195L22.19 9.31171C22.2954 9.29527 22.4016 9.2869 22.508 9.28666C22.7805 9.2848 23.0506 9.34347 23.3027 9.45926C23.5547 9.57505 23.7837 9.74567 23.9762 9.96119C24.4066 10.4431 24.6427 11.1211 24.6416 11.8712L24.6319 17.6146C24.6292 19.2046 23.55 20.6677 22.2259 20.8758L20.073 21.2131L18.4294 23.7544C18.3488 23.8833 18.2459 23.9927 18.1268 24.0763C18.0077 24.1598 17.8747 24.2157 17.7358 24.2407C17.6949 24.2472 17.6536 24.2505 17.6122 24.2506V24.251Z" fill="#0D2C6C"/>
<path d="M22.2165 9.5255L13.2471 10.9354C12.0126 11.1293 11.01 12.4939 11.0061 13.9829L10.9968 19.7263C10.9953 21.2131 11.9941 22.2646 13.2305 22.0707L15.4641 21.7196L17.146 23.8041C17.2159 23.8906 17.304 23.9563 17.4023 23.995C17.5006 24.0338 17.606 24.0445 17.709 24.0261C17.8222 24.0055 17.9305 23.9595 18.0273 23.891C18.1242 23.8224 18.2077 23.7326 18.2727 23.6271L19.9643 21.0114L22.1979 20.6604C23.4324 20.4665 24.4354 19.1019 24.4389 17.6129L24.4486 11.8695C24.4497 10.3818 23.451 9.33161 22.2165 9.5255Z" fill="#0D2C6C"/>
<path style="mix-blend-mode:screen" opacity="0.2" d="M24.254 11.8703L24.2482 15.5789L11.1948 17.4129L11.2006 13.9837C11.2029 12.6018 12.133 11.3292 13.2739 11.1496L22.2433 9.73921C22.331 9.72537 22.4194 9.7183 22.508 9.71805C22.7295 9.71657 22.949 9.76424 23.1539 9.85831C23.3588 9.95238 23.5449 10.091 23.7015 10.266C24.0589 10.6659 24.2552 11.2377 24.254 11.8703Z" fill="#0D2C6C"/>
<path d="M19.992 16.3169L19.9607 16.2987L19.9491 16.2931C19.9321 16.2845 19.9147 16.2763 19.8974 16.2685L19.8761 16.259C19.8508 16.2487 19.825 16.24 19.7988 16.2327C19.7803 16.2271 19.7602 16.2227 19.7416 16.2189L19.7285 16.2163C19.7084 16.2124 19.6899 16.2089 19.6675 16.2068H19.659C19.6399 16.2048 19.6206 16.2035 19.601 16.2029H19.5898C19.5689 16.2029 19.5477 16.2029 19.526 16.2029H19.5125C19.4905 16.2029 19.4681 16.2068 19.4457 16.2102L15.7419 16.7941C15.7187 16.7975 15.6959 16.8023 15.6731 16.8079L15.6557 16.8122C15.6344 16.8174 15.614 16.8234 15.5935 16.8303H15.5877C15.5657 16.8377 15.544 16.8463 15.5224 16.8554L15.5058 16.8627C15.4869 16.8709 15.4671 16.88 15.4498 16.8895L15.4432 16.8925C15.4173 16.9059 15.3922 16.921 15.3659 16.9357L15.3543 16.943C15.3304 16.959 15.3068 16.9754 15.284 16.9931L15.2778 16.9975L15.2701 17.0035C15.2527 17.0173 15.2353 17.0316 15.2183 17.0467L15.2137 17.0506C15.1955 17.0665 15.1777 17.0838 15.1604 17.1011L15.1542 17.1067L15.1461 17.1153C15.1337 17.1283 15.1213 17.1413 15.1094 17.1546L15.0974 17.168C15.0819 17.1853 15.0669 17.2034 15.0522 17.222L15.0499 17.2246L15.0433 17.2332C15.0317 17.2484 15.0201 17.2639 15.0089 17.2794C15.0047 17.2855 15.0004 17.2911 14.9965 17.2972C14.9853 17.3131 14.9749 17.3291 14.9645 17.3451C14.9625 17.3485 14.9602 17.3516 14.9579 17.355C14.9578 17.356 14.9578 17.357 14.9579 17.358C14.9444 17.3792 14.9316 17.4012 14.9193 17.4232C14.9162 17.4284 14.9135 17.434 14.9104 17.4397C14.9007 17.4578 14.8911 17.4764 14.8818 17.4949L14.8764 17.5057L14.8741 17.5109C14.8613 17.5377 14.8493 17.5649 14.8377 17.593C14.8377 17.5981 14.8335 17.6038 14.8316 17.6094C14.82 17.6374 14.8095 17.6664 14.7999 17.6957C14.7997 17.6966 14.7997 17.6975 14.7999 17.6983C14.7968 17.7074 14.7941 17.7169 14.7914 17.726C14.7887 17.735 14.7856 17.7441 14.7829 17.7532C14.7802 17.7622 14.7771 17.7743 14.7744 17.7851C14.7717 17.7959 14.7693 17.8033 14.767 17.8128C14.7647 17.8223 14.762 17.8348 14.7593 17.8456C14.7566 17.8564 14.755 17.8637 14.7531 17.8728C14.7512 17.8819 14.7489 17.8957 14.7469 17.9069C14.745 17.9181 14.7435 17.925 14.7419 17.9341C14.7404 17.9432 14.7384 17.9574 14.7365 17.9691L14.733 17.9954C14.733 18.0079 14.7303 18.0205 14.7288 18.033L14.7265 18.058C14.7265 18.0714 14.7265 18.0852 14.7238 18.0986C14.721 18.112 14.7238 18.1133 14.7238 18.1207C14.7238 18.1418 14.7238 18.1638 14.7238 18.1837L14.7214 19.5656L14.9857 19.7262L14.988 18.3443C14.988 18.3232 14.988 18.3012 14.988 18.2813C14.988 18.274 14.988 18.2666 14.988 18.2593C14.988 18.2519 14.988 18.2321 14.9907 18.2187C14.9934 18.2053 14.9907 18.2018 14.9931 18.1936C14.9954 18.1854 14.9954 18.1686 14.9969 18.1561C14.9985 18.1435 14.9996 18.1388 15.0008 18.1302C15.0019 18.1215 15.0043 18.1064 15.0062 18.0943C15.0081 18.0822 15.0093 18.077 15.0108 18.068C15.0124 18.0589 15.0151 18.0451 15.0174 18.0334C15.0197 18.0218 15.0213 18.0157 15.0236 18.0067C15.0259 17.9976 15.0282 17.9842 15.0309 17.9734C15.0336 17.9626 15.0359 17.9553 15.0383 17.9462C15.0406 17.9371 15.0441 17.9246 15.0472 17.9138C15.0502 17.903 15.0526 17.8957 15.0553 17.887C15.058 17.8784 15.0614 17.8663 15.0649 17.8564C15.0746 17.8274 15.085 17.7985 15.0962 17.77C15.0985 17.7648 15.1009 17.7592 15.1028 17.754C15.1144 17.726 15.1264 17.6988 15.1391 17.672C15.1414 17.6664 15.1441 17.6612 15.1468 17.656C15.1561 17.6374 15.1658 17.6189 15.1754 17.6007C15.1785 17.5951 15.1812 17.5895 15.1843 17.5843C15.1967 17.5619 15.2094 17.5411 15.223 17.5191L15.2315 17.5062C15.2415 17.4902 15.2523 17.4742 15.2631 17.4582L15.2759 17.4405C15.2871 17.425 15.2987 17.4094 15.3103 17.3943C15.3134 17.3904 15.3161 17.3865 15.3192 17.3831C15.3338 17.3645 15.3489 17.3464 15.3644 17.3291L15.376 17.3157L15.4146 17.2764L15.4289 17.2622C15.4463 17.2449 15.4641 17.2276 15.4822 17.2116L15.4869 17.2078C15.5039 17.1926 15.5212 17.1784 15.5386 17.1646L15.5525 17.1538C15.5753 17.1361 15.5989 17.1192 15.6229 17.1037L15.6344 17.0963C15.6596 17.0808 15.6847 17.0657 15.7117 17.0532L15.7202 17.0488C15.7388 17.0393 15.7589 17.0303 15.7762 17.0221L15.7929 17.0147C15.8145 17.0057 15.8361 16.997 15.8582 16.9897H15.864C15.8844 16.9828 15.9049 16.9767 15.9258 16.9715L15.9435 16.9672C15.9663 16.9616 15.9891 16.9569 16.0123 16.9534L19.7165 16.3713C19.7389 16.3678 19.7613 16.3657 19.7834 16.364H19.7969C19.8185 16.364 19.8398 16.364 19.8606 16.364H19.8719C19.8912 16.364 19.9105 16.364 19.9298 16.3678H19.9383C19.9588 16.37 19.9793 16.3735 19.9994 16.3773L20.0125 16.3799C20.0322 16.3838 20.0511 16.3886 20.0712 16.3942C20.0971 16.4015 20.1218 16.4106 20.1485 16.4205L20.1698 16.43C20.1871 16.4378 20.2045 16.446 20.2215 16.4546C20.2385 16.4633 20.2505 16.4698 20.2644 16.4784L19.992 16.3169Z" fill="#0D2C6C"/>
<path d="M16.7289 15.6092L16.9932 15.7698C16.54 15.4943 16.2402 14.9308 16.2413 14.2351C16.2413 14.2014 16.2413 14.1681 16.2437 14.1349C16.2437 14.1237 16.2437 14.1124 16.2437 14.1012C16.2437 14.0792 16.246 14.058 16.2479 14.0351C16.2479 14.0217 16.2506 14.0084 16.2522 13.995C16.2537 13.9816 16.256 13.9557 16.2583 13.9367C16.2607 13.9177 16.2622 13.9082 16.2645 13.8935C16.2668 13.8788 16.2695 13.8564 16.2726 13.8378C16.2757 13.8192 16.2777 13.8089 16.2804 13.7946C16.2831 13.7804 16.2869 13.7592 16.2904 13.7415C16.2939 13.7238 16.297 13.7121 16.3005 13.6983C16.3039 13.6845 16.3078 13.6638 16.312 13.6469C16.3163 13.6301 16.3198 13.6176 16.324 13.6037C16.3283 13.5899 16.3325 13.57 16.3375 13.5536C16.3426 13.5372 16.3464 13.5247 16.3507 13.5105C16.3549 13.4962 16.3607 13.4772 16.3665 13.4608C16.3692 13.4522 16.3723 13.4435 16.3754 13.4349C16.3824 13.415 16.3893 13.3947 16.3967 13.3749C16.4005 13.3645 16.4048 13.3541 16.4086 13.3433C16.4156 13.3256 16.4225 13.3079 16.4299 13.2902C16.4345 13.2794 16.4392 13.2686 16.4434 13.2578L16.467 13.2056C16.4716 13.1956 16.4759 13.1853 16.4809 13.1754C16.4859 13.1654 16.4909 13.1551 16.496 13.1447C16.5103 13.1153 16.5257 13.086 16.5412 13.0583L16.5551 13.0324C16.5748 12.9974 16.5937 12.9629 16.6161 12.9288L16.6293 12.9089C16.6455 12.883 16.6625 12.8575 16.6799 12.8325L16.6996 12.8044C16.7174 12.7794 16.7359 12.7552 16.7544 12.731L16.7684 12.7133C16.7915 12.6839 16.8155 12.6554 16.8398 12.6269L16.8588 12.6062C16.8781 12.585 16.8974 12.563 16.9175 12.5436L16.9399 12.5207C16.9677 12.4935 16.9955 12.4667 17.0245 12.4408L17.0323 12.4348C17.0589 12.411 17.0863 12.3885 17.1142 12.3665L17.1451 12.3428L17.1737 12.3216L17.2123 12.2931L17.2413 12.2737L17.2838 12.2469L17.3116 12.2296L17.3591 12.2029L17.3835 12.1895C17.4063 12.1774 17.4287 12.1662 17.4519 12.1554L17.4689 12.1476C17.487 12.1394 17.5052 12.1312 17.5233 12.1238L17.5446 12.1152C17.5655 12.107 17.5859 12.0992 17.6072 12.0919L17.6168 12.0884C17.6408 12.0802 17.6651 12.0729 17.6891 12.066L17.7123 12.0582L17.7679 12.0444L17.7896 12.0396C17.8147 12.0344 17.8394 12.0293 17.8645 12.0254C17.8896 12.0215 17.9097 12.0193 17.9321 12.0167H17.953L17.9994 12.0133H18.0229H18.0681H18.0894H18.145H18.1547C18.1759 12.0133 18.1972 12.0167 18.2184 12.0189L18.2366 12.0211L18.2818 12.0275L18.3038 12.0314L18.3456 12.0401L18.3664 12.0448C18.3823 12.0483 18.3981 12.0526 18.4136 12.0569L18.4275 12.0604C18.4476 12.0664 18.4676 12.0729 18.4877 12.0798L18.5032 12.0854L18.5472 12.1022L18.5669 12.1104L18.6075 12.1282L18.6257 12.1368C18.6427 12.1449 18.6593 12.1535 18.6755 12.1627L18.6821 12.1662C18.6983 12.1748 18.7145 12.1843 18.7304 12.1938L18.4661 12.0332C18.4503 12.0236 18.434 12.0141 18.4178 12.0055L18.4124 12.0029C18.3958 11.9939 18.3792 11.9852 18.3622 11.977L18.344 11.9688C18.3306 11.9622 18.3171 11.9561 18.3034 11.9507L18.2837 11.9425L18.2397 11.9256L18.2242 11.92L18.164 11.9006H18.1616L18.15 11.898C18.1346 11.8937 18.1191 11.8893 18.1033 11.8859L18.082 11.8811L18.0403 11.8725L18.0183 11.8691C18.0036 11.8665 17.9882 11.8643 17.9731 11.8626L17.9549 11.86C17.9337 11.8578 17.9124 11.8557 17.8912 11.8544H17.8815H17.8263H17.8042C17.7896 11.8544 17.7745 11.8544 17.7598 11.8544H17.7358L17.6899 11.8578L17.6686 11.86C17.6462 11.8626 17.6238 11.8652 17.6014 11.8686C17.579 11.8721 17.5512 11.8777 17.5264 11.8829L17.5048 11.8876L17.4488 11.9014L17.4287 11.9071C17.4043 11.914 17.38 11.9213 17.356 11.9295L17.3464 11.933L17.2838 11.9563L17.2629 11.9649C17.2444 11.9723 17.2243 11.9805 17.2081 11.9887L17.1911 11.9964C17.1694 12.0064 17.1482 12.0172 17.1273 12.028L17.1231 12.0306L17.0987 12.0439L17.0508 12.0707L17.0234 12.088C17.0087 12.0966 16.9944 12.1057 16.9805 12.1148L16.9519 12.1342C16.9384 12.1437 16.9248 12.1528 16.9113 12.1627L16.8831 12.1839L16.8638 12.1977C16.8599 12.2007 16.8561 12.2046 16.8518 12.2076C16.824 12.2296 16.7966 12.2508 16.7699 12.2754L16.7622 12.2819C16.7336 12.3078 16.7054 12.3346 16.6776 12.3622L16.6679 12.3708L16.6551 12.3847C16.6354 12.405 16.6165 12.4278 16.5964 12.4473L16.5775 12.468C16.5531 12.4961 16.5292 12.5246 16.506 12.5544L16.5025 12.5583C16.4991 12.5626 16.496 12.5673 16.4925 12.5721C16.4735 12.5963 16.4538 12.6204 16.4372 12.6455L16.4175 12.6736C16.4001 12.6986 16.3835 12.7241 16.3669 12.7496L16.3569 12.7651C16.3559 12.7668 16.3549 12.7684 16.3538 12.7699C16.3329 12.804 16.3124 12.8385 16.2931 12.8735C16.2881 12.8821 16.2835 12.8908 16.2788 12.8994C16.2634 12.9283 16.2483 12.9577 16.2336 12.9858C16.2309 12.9918 16.2274 12.9974 16.2247 13.003L16.2185 13.0164L16.2046 13.0467C16.1965 13.0644 16.1888 13.0816 16.1814 13.0989C16.1741 13.1162 16.1722 13.1205 16.1679 13.1313C16.1606 13.149 16.1532 13.1667 16.1463 13.1849L16.1343 13.2159C16.127 13.2358 16.12 13.2561 16.1131 13.276C16.11 13.2846 16.1069 13.2932 16.1042 13.3019L16.1019 13.3079C16.0972 13.3226 16.093 13.3373 16.0883 13.3511C16.0837 13.3649 16.0794 13.38 16.0752 13.3943C16.0709 13.4085 16.0659 13.428 16.0617 13.4448C16.0574 13.4617 16.0536 13.4737 16.0501 13.488C16.0466 13.5022 16.042 13.5225 16.0381 13.5403C16.0342 13.558 16.0311 13.5688 16.0281 13.5834C16.025 13.5981 16.0215 13.6193 16.018 13.6374C16.0145 13.6556 16.0126 13.6659 16.0103 13.6806C16.008 13.6953 16.0045 13.7182 16.0022 13.7367C15.9998 13.7553 15.9979 13.7644 15.996 13.7799C15.9941 13.7955 15.9917 13.8192 15.9898 13.8391C15.9898 13.852 15.9867 13.8654 15.9856 13.8784C15.9856 13.9004 15.9828 13.9216 15.9813 13.9453C15.9813 13.9561 15.9813 13.9669 15.9794 13.9781C15.9794 14.0114 15.9771 14.0446 15.9771 14.0783C15.9759 14.7701 16.2761 15.3337 16.7289 15.6092Z" fill="#0D2C6C"/>
<path d="M19.7099 16.3727L16.0057 16.9548C15.4412 17.0433 14.983 17.6669 14.9818 18.3479L14.9795 19.7298L20.7261 18.8268L20.7284 17.4449C20.7307 16.7652 20.2744 16.2842 19.7099 16.3727Z" fill="white"/>
<path d="M17.8588 15.936C18.7544 15.7953 19.4816 14.8059 19.4816 13.7259C19.4816 12.6459 18.761 11.8854 17.8669 12.0249C16.9728 12.1644 16.2441 13.155 16.2441 14.235C16.2441 15.3151 16.9636 16.0768 17.8588 15.936Z" fill="white"/>
<defs>
<linearGradient id="paint0_linear_468_21871" x1="12.2171" y1="12.8549" x2="12.2171" y2="11.3854" gradientUnits="userSpaceOnUse">
<stop stop-color="#0D2C6C"/>
<stop offset="1" stop-color="#0D2C6C"/>
</linearGradient>
</defs>
</svg>
