<svg width="29" height="29" viewBox="0 0 29 29" fill="none" xmlns="http://www.w3.org/2000/svg">
<path d="M20 0.941284H9C4.45012 0.941284 0.75 4.64141 0.75 9.19128V27.0663C0.75 27.431 0.894866 27.7807 1.15273 28.0386C1.41059 28.2964 1.76033 28.4413 2.125 28.4413H20C24.5499 28.4413 28.25 24.7412 28.25 20.1913V9.19128C28.25 4.64141 24.5499 0.941284 20 0.941284ZM25.5 20.1913C25.5 23.2245 23.0333 25.6913 20 25.6913H3.5V9.19128C3.5 6.15803 5.96675 3.69128 9 3.69128H20C23.0333 3.69128 25.5 6.15803 25.5 9.19128V20.1913Z" fill="white"/>
<path d="M7.625 10.5663H21.375V13.3163H7.625V10.5663ZM7.625 16.0663H17.25V18.8163H7.625V16.0663Z" fill="white"/>
</svg>
