<svg width="25" height="24" viewBox="0 0 25 24" fill="none" xmlns="http://www.w3.org/2000/svg">
<path d="M12.4994 13.7142C13.4462 13.7142 14.2137 12.9467 14.2137 11.9999C14.2137 11.0532 13.4462 10.2856 12.4994 10.2856C11.5527 10.2856 10.7852 11.0532 10.7852 11.9999C10.7852 12.9467 11.5527 13.7142 12.4994 13.7142Z" stroke="#0D2C6C" stroke-width="2.05714" stroke-miterlimit="10" stroke-linecap="square"/>
<path d="M4.78655 13.7142C5.73333 13.7142 6.50084 12.9467 6.50084 11.9999C6.50084 11.0532 5.73333 10.2856 4.78655 10.2856C3.83978 10.2856 3.07227 11.0532 3.07227 11.9999C3.07227 12.9467 3.83978 13.7142 4.78655 13.7142Z" stroke="#0D2C6C" stroke-width="2.05714" stroke-miterlimit="10" stroke-linecap="square"/>
<path d="M20.2143 13.7142C21.1611 13.7142 21.9286 12.9467 21.9286 11.9999C21.9286 11.0532 21.1611 10.2856 20.2143 10.2856C19.2675 10.2856 18.5 11.0532 18.5 11.9999C18.5 12.9467 19.2675 13.7142 20.2143 13.7142Z" stroke="#0D2C6C" stroke-width="2.05714" stroke-miterlimit="10" stroke-linecap="square"/>
</svg>
