<svg width="32" height="22" viewBox="0 0 32 22" fill="none" xmlns="http://www.w3.org/2000/svg">
<path d="M30.75 21.374H2.125C1.79348 21.374 1.47554 21.2423 1.24112 21.0079C1.0067 20.7735 0.875 20.4555 0.875 20.124V16.8438H32V20.124C32 20.2882 31.9677 20.4507 31.9049 20.6024C31.842 20.754 31.75 20.8918 31.6339 21.0079C31.5178 21.124 31.38 21.216 31.2284 21.2789C31.0767 21.3417 30.9142 21.374 30.75 21.374Z" fill="#0D2C6C"/>
<path d="M29.75 16.8438H3.125V1C3.125 0.734784 3.23036 0.480429 3.41789 0.292893C3.60543 0.105357 3.85978 0 4.125 0H28.75C29.0152 0 29.2696 0.105357 29.4571 0.292893C29.6446 0.480429 29.75 0.734784 29.75 1V16.8438Z" fill="#7CA5DB"/>
<path d="M13.1865 8.59424H7.625C6.52043 8.59424 5.625 9.48967 5.625 10.5942V12.3415C5.625 13.4461 6.52043 14.3415 7.625 14.3415H13.1865C14.2911 14.3415 15.1865 13.4461 15.1865 12.3415V10.5942C15.1865 9.48967 14.2911 8.59424 13.1865 8.59424Z" fill="#3A4865" fill-opacity="0.82"/>
<path d="M19.8673 19.109H13.0078C12.7426 19.109 12.4882 19.0036 12.3007 18.8161C12.1132 18.6286 12.0078 18.3742 12.0078 18.109V16.8438H20.8673V18.109C20.8673 18.3742 20.762 18.6286 20.5744 18.8161C20.3869 19.0036 20.1325 19.109 19.8673 19.109Z" fill="#FBFCFF"/>
<path d="M25.4538 2.5H23.5462C22.5542 2.5 21.75 3.30421 21.75 4.29625C21.75 5.28829 22.5542 6.0925 23.5462 6.0925H25.4538C26.4458 6.0925 27.25 5.28829 27.25 4.29625C27.25 3.30421 26.4458 2.5 25.4538 2.5Z" fill="#485879"/>
<path d="M11.7768 2.93701C11.8929 2.93701 12.0042 2.89092 12.0862 2.80887C12.1683 2.72682 12.2143 2.61554 12.2143 2.49951C12.2143 2.38348 12.1683 2.2722 12.0862 2.19015C12.0042 2.10811 11.8929 2.06201 11.7768 2.06201H9.3606C9.24456 2.06201 9.13328 2.10811 9.05124 2.19015C8.96919 2.2722 8.9231 2.38348 8.9231 2.49951V6.09201C8.92316 6.20802 8.96928 6.31926 9.05131 6.4013C9.13334 6.48333 9.24458 6.52945 9.3606 6.52951H11.7768C11.8929 6.52951 12.0042 6.48342 12.0862 6.40137C12.1683 6.31932 12.2143 6.20804 12.2143 6.09201C12.2143 5.97598 12.1683 5.8647 12.0862 5.78265C12.0042 5.70061 11.8929 5.65451 11.7768 5.65451H9.7981V4.73351H11.7768C11.8929 4.73351 12.0042 4.68742 12.0862 4.60537C12.1683 4.52332 12.2143 4.41204 12.2143 4.29601C12.2143 4.17998 12.1683 4.0687 12.0862 3.98665C12.0042 3.90461 11.8929 3.85851 11.7768 3.85851H9.7981V2.93701H11.7768Z" fill="#0D2C6C" fill-opacity="0.6"/>
<path d="M8.04125 2.06201C7.98379 2.06198 7.92688 2.07327 7.87379 2.09525C7.82069 2.11722 7.77245 2.14945 7.73182 2.19008C7.69119 2.23071 7.65896 2.27895 7.63699 2.33205C7.61501 2.38514 7.60372 2.44205 7.60375 2.49951V4.65751L5.9875 2.25576C5.93509 2.1782 5.85919 2.1195 5.77095 2.08827C5.6827 2.05705 5.58677 2.05494 5.49725 2.08228C5.40772 2.10961 5.32932 2.16494 5.27357 2.24013C5.21782 2.31532 5.18765 2.40641 5.1875 2.50001V6.09251C5.1875 6.20854 5.23359 6.31982 5.31564 6.40187C5.39769 6.48392 5.50897 6.53001 5.625 6.53001C5.74103 6.53001 5.85231 6.48392 5.93436 6.40187C6.01641 6.31982 6.0625 6.20854 6.0625 6.09251V3.93426L7.67825 6.33701C7.73065 6.41455 7.80652 6.47325 7.89474 6.50448C7.98296 6.53571 8.07887 6.53783 8.16838 6.51053C8.2579 6.48323 8.3363 6.42795 8.39207 6.3528C8.44784 6.27765 8.47805 6.1866 8.47825 6.09301V2.50001C8.47835 2.44255 8.46712 2.38563 8.44521 2.33251C8.42329 2.27939 8.39112 2.23111 8.35054 2.19043C8.30995 2.14975 8.26174 2.11747 8.20867 2.09544C8.15561 2.0734 8.09871 2.06204 8.04125 2.06201Z" fill="#0D2C6C" fill-opacity="0.6"/>
<path d="M15.5124 2.06201C15.455 2.06198 15.3981 2.07327 15.345 2.09525C15.2919 2.11722 15.2436 2.14945 15.203 2.19008C15.1624 2.23071 15.1301 2.27895 15.1082 2.33205C15.0862 2.38514 15.0749 2.44205 15.0749 2.49951V4.65726L14.6674 4.05201C14.6274 3.99266 14.5734 3.94405 14.5102 3.91045C14.447 3.87684 14.3765 3.85926 14.3049 3.85926C14.2333 3.85926 14.1628 3.87684 14.0996 3.91045C14.0364 3.94405 13.9824 3.99266 13.9424 4.05201L13.5347 4.65801V2.50001C13.5347 2.38398 13.4886 2.2727 13.4065 2.19065C13.3245 2.10861 13.2132 2.06251 13.0972 2.06251C12.9811 2.06251 12.8699 2.10861 12.7878 2.19065C12.7058 2.2727 12.6597 2.38398 12.6597 2.50001V6.09251C12.6599 6.1861 12.6901 6.27715 12.7458 6.3523C12.8016 6.42745 12.88 6.48273 12.9695 6.51003C13.059 6.53733 13.155 6.53521 13.2432 6.50398C13.3314 6.47275 13.4073 6.41405 13.4597 6.33651L14.3049 5.08001L15.1499 6.33651C15.2023 6.41405 15.2782 6.47275 15.3664 6.50398C15.4546 6.53521 15.5505 6.53733 15.6401 6.51003C15.7296 6.48273 15.808 6.42745 15.8637 6.3523C15.9195 6.27715 15.9497 6.1861 15.9499 6.09251V2.50001C15.95 2.44251 15.9388 2.38555 15.9168 2.3324C15.8949 2.27924 15.8627 2.23094 15.822 2.19026C15.7814 2.14957 15.7331 2.1173 15.68 2.0953C15.6269 2.07329 15.5699 2.06198 15.5124 2.06201Z" fill="#0D2C6C" fill-opacity="0.6"/>
<path d="M19.6855 6.09251V4.29601C19.6855 4.17998 19.6394 4.0687 19.5574 3.98665C19.4753 3.90461 19.3641 3.85851 19.248 3.85851H17.2693V2.93701H19.248C19.3641 2.93701 19.4753 2.89092 19.5574 2.80887C19.6394 2.72682 19.6855 2.61554 19.6855 2.49951C19.6855 2.38348 19.6394 2.2722 19.5574 2.19015C19.4753 2.10811 19.3641 2.06201 19.248 2.06201H16.8318C16.7743 2.06198 16.7174 2.07327 16.6643 2.09525C16.6112 2.11722 16.563 2.14945 16.5224 2.19008C16.4817 2.23071 16.4495 2.27895 16.4275 2.33205C16.4055 2.38514 16.3943 2.44205 16.3943 2.49951V4.29551C16.3943 4.35297 16.4055 4.40988 16.4275 4.46297C16.4495 4.51607 16.4817 4.56431 16.5224 4.60494C16.563 4.64558 16.6112 4.6778 16.6643 4.69978C16.7174 4.72175 16.7743 4.73304 16.8318 4.73301H18.8105V5.65451H16.8318C16.7158 5.65451 16.6045 5.70061 16.5224 5.78265C16.4404 5.8647 16.3943 5.97598 16.3943 6.09201C16.3943 6.20804 16.4404 6.31932 16.5224 6.40137C16.6045 6.48342 16.7158 6.52951 16.8318 6.52951H19.248C19.364 6.52951 19.4752 6.48349 19.5572 6.40155C19.6393 6.31961 19.6854 6.20846 19.6855 6.09251Z" fill="#0D2C6C" fill-opacity="0.6"/>
<path d="M17.251 9.09326C17.251 9.20912 17.2969 9.32025 17.3788 9.40227C17.4606 9.48429 17.5716 9.5305 17.6875 9.53076H27.25C27.366 9.53076 27.4773 9.48467 27.5593 9.40262C27.6414 9.32057 27.6875 9.20929 27.6875 9.09326C27.6875 8.97723 27.6414 8.86595 27.5593 8.7839C27.4773 8.70186 27.366 8.65576 27.25 8.65576H17.6875C17.5716 8.65603 17.4606 8.70224 17.3788 8.78426C17.2969 8.86627 17.251 8.9774 17.251 9.09326Z" fill="#C9DFF7"/>
<path d="M18.7822 11.0305C18.6662 11.0305 18.5549 11.0766 18.4729 11.1587C18.3908 11.2407 18.3447 11.352 18.3447 11.468C18.3447 11.584 18.3908 11.6953 18.4729 11.7774C18.5549 11.8594 18.6662 11.9055 18.7822 11.9055H26.1572C26.2733 11.9055 26.3845 11.8594 26.4666 11.7774C26.5486 11.6953 26.5947 11.584 26.5947 11.468C26.5947 11.352 26.5486 11.2407 26.4666 11.1587C26.3845 11.0766 26.2733 11.0305 26.1572 11.0305H18.7822Z" fill="#C9DFF7"/>
<path d="M27.25 13.4053H17.6875C17.5715 13.4053 17.4602 13.4514 17.3781 13.5334C17.2961 13.6155 17.25 13.7267 17.25 13.8428C17.25 13.9588 17.2961 14.0701 17.3781 14.1521C17.4602 14.2342 17.5715 14.2803 17.6875 14.2803H27.25C27.366 14.2803 27.4773 14.2342 27.5594 14.1521C27.6414 14.0701 27.6875 13.9588 27.6875 13.8428C27.6875 13.7267 27.6414 13.6155 27.5594 13.5334C27.4773 13.4514 27.366 13.4053 27.25 13.4053Z" fill="#C9DFF7"/>
</svg>
