<svg width="23" height="26" viewBox="0 0 23 26" fill="none" xmlns="http://www.w3.org/2000/svg">
<path d="M19.5006 25.7982H3.17873C1.42323 25.7982 0 24.2607 0 22.3642V4.72392C0 2.82745 1.42323 1.28992 3.17873 1.28992H19.5006C21.2561 1.28992 22.6793 2.82745 22.6793 4.72392V22.3623C22.6793 24.2607 21.2561 25.7982 19.5006 25.7982Z" fill="#0D2C6C"/>
<path d="M19.5006 1.28992H3.17873C1.42323 1.28992 0 2.82745 0 4.72392V6.90257H22.6793V4.72392C22.6793 2.82745 21.2561 1.28992 19.5006 1.28992Z" fill="#3A4F7C"/>
<path d="M6.30377 5.16203C6.84846 4.57358 6.84846 3.61953 6.30377 3.03109C5.75907 2.44265 4.87593 2.44265 4.33124 3.03109C3.78654 3.61953 3.78654 4.57358 4.33124 5.16203C4.87593 5.75047 5.75907 5.75047 6.30377 5.16203Z" fill="#FFF7E5"/>
<path d="M5.31809 5.24794C4.73174 5.24794 4.25732 4.73543 4.25732 4.10199V1.14595C4.25732 0.512509 4.73174 0 5.31809 0C5.90444 0 6.37885 0.512509 6.37885 1.14595V4.10199C6.37885 4.73351 5.90444 5.24794 5.31809 5.24794Z" fill="#3A4F7C"/>
<path d="M12.1793 5.16129C12.724 4.57285 12.724 3.6188 12.1793 3.03036C11.6346 2.44191 10.7514 2.44191 10.2067 3.03036C9.66202 3.6188 9.66202 4.57285 10.2067 5.16129C10.7514 5.74974 11.6346 5.74974 12.1793 5.16129Z" fill="#FFF7E5"/>
<path d="M11.1938 5.24794C10.6075 5.24794 10.1331 4.73543 10.1331 4.10199V1.14595C10.1331 0.512509 10.6075 0 11.1938 0C11.7802 0 12.2546 0.512509 12.2546 1.14595V4.10199C12.2546 4.73351 11.7784 5.24794 11.1938 5.24794Z" fill="#3A4F7C"/>
<path d="M18.0538 5.16203C18.5985 4.57358 18.5985 3.61953 18.0538 3.03109C17.5091 2.44265 16.6259 2.44265 16.0812 3.03109C15.5365 3.61953 15.5365 4.57358 16.0812 5.16203C16.6259 5.75047 17.5091 5.75047 18.0538 5.16203Z" fill="#FFF7E5"/>
<path d="M17.0681 5.24794C16.4817 5.24794 16.0073 4.73543 16.0073 4.10199V1.14595C16.0073 0.512509 16.4817 0 17.0681 0C17.6544 0 18.1288 0.512509 18.1288 1.14595V4.10199C18.1288 4.73351 17.6544 5.24794 17.0681 5.24794Z" fill="#3A4F7C"/>
<path d="M12.4946 12.1198H10.1119C9.82048 12.1198 9.58594 11.8645 9.58594 11.5517V8.9776C9.58594 8.6628 9.82225 8.40942 10.1119 8.40942H12.4946C12.786 8.40942 13.0205 8.66472 13.0205 8.9776V11.5517C13.0205 11.8645 12.7842 12.1198 12.4946 12.1198Z" fill="white"/>
<path d="M12.674 11.9816H10.1865C9.92531 11.9816 9.71209 11.7532 9.71209 11.4691V8.78177C9.71209 8.69348 9.73164 8.61286 9.76895 8.53992C9.65701 8.64357 9.58594 8.79521 9.58594 8.96605V11.5574C9.58594 11.8664 9.8187 12.1179 10.1048 12.1179H12.5035C12.6616 12.1179 12.8038 12.0411 12.8979 11.9202C12.8304 11.9605 12.754 11.9816 12.674 11.9816Z" fill="white"/>
<path d="M12.4893 8.40747H10.1155C9.96093 8.40747 9.82233 8.47849 9.72461 8.59366C9.81878 8.49961 9.94493 8.44202 10.0835 8.44202H12.4574C12.7505 8.44202 12.9886 8.69924 12.9886 9.01596V11.5804C12.9886 11.7301 12.9353 11.8664 12.8483 11.9682C12.9531 11.8626 13.0206 11.7129 13.0206 11.5459V8.9814C13.0206 8.66469 12.7825 8.40747 12.4893 8.40747Z" fill="white"/>
<path d="M18.0009 12.1198H15.6182C15.3268 12.1198 15.0923 11.8645 15.0923 11.5517V8.9776C15.0923 8.6628 15.3286 8.40942 15.6182 8.40942H18.0009C18.2923 8.40942 18.5269 8.66472 18.5269 8.9776V11.5517C18.5269 11.8645 18.2923 12.1198 18.0009 12.1198Z" fill="white"/>
<path d="M18.1804 11.9816H15.6929C15.4317 11.9816 15.2184 11.7532 15.2184 11.4691V8.78177C15.2184 8.69348 15.238 8.61286 15.2753 8.53992C15.1634 8.64357 15.0923 8.79521 15.0923 8.96605V11.5574C15.0923 11.8664 15.325 12.1179 15.6111 12.1179H18.0098C18.168 12.1179 18.3101 12.0411 18.4043 11.9202C18.3368 11.9605 18.2621 11.9816 18.1804 11.9816Z" fill="white"/>
<path d="M17.9957 8.40747H15.6219C15.4673 8.40747 15.3287 8.47849 15.231 8.59366C15.3251 8.49961 15.4513 8.44202 15.5899 8.44202H17.9637C18.2569 8.44202 18.495 8.69924 18.495 9.01596V11.5804C18.495 11.7301 18.4417 11.8664 18.3546 11.9682C18.4594 11.8626 18.527 11.7129 18.527 11.5459V8.9814C18.527 8.66469 18.2906 8.40747 17.9957 8.40747Z" fill="white"/>
<path d="M6.98653 17.4945H4.60382C4.31242 17.4945 4.07788 17.2392 4.07788 16.9263V14.3522C4.07788 14.0374 4.3142 13.7841 4.60382 13.7841H6.98653C7.27793 13.7841 7.51247 14.0394 7.51247 14.3522V16.9263C7.51425 17.2392 7.27793 17.4945 6.98653 17.4945Z" fill="white"/>
<path d="M7.16599 17.3562H4.67845C4.41725 17.3562 4.20403 17.1278 4.20403 16.8437V14.1564C4.20403 14.0681 4.22358 13.9875 4.26089 13.9146C4.14895 14.0182 4.07788 14.1698 4.07788 14.3407V16.932C4.07788 17.2411 4.31065 17.4925 4.59671 17.4925H6.99542C7.15356 17.4925 7.2957 17.4157 7.38987 17.2948C7.32413 17.3351 7.24773 17.3562 7.16599 17.3562Z" fill="white"/>
<path d="M6.98299 13.7821H4.60916C4.45458 13.7821 4.31599 13.8531 4.21826 13.9683C4.31243 13.8742 4.43859 13.8167 4.57718 13.8167H6.95101C7.24419 13.8167 7.48228 14.0739 7.48228 14.3906V16.9551C7.48228 17.1048 7.42897 17.2411 7.34191 17.3428C7.44674 17.2372 7.51426 17.0875 7.51426 16.9205V14.356C7.51426 14.0393 7.27617 13.7821 6.98299 13.7821Z" fill="white"/>
<path d="M12.4946 17.4945H10.1119C9.82048 17.4945 9.58594 17.2392 9.58594 16.9263V14.3522C9.58594 14.0374 9.82225 13.7841 10.1119 13.7841H12.4946C12.786 13.7841 13.0205 14.0394 13.0205 14.3522V16.9263C13.0205 17.2392 12.7842 17.4945 12.4946 17.4945Z" fill="white"/>
<path d="M12.674 17.3562H10.1865C9.92531 17.3562 9.71209 17.1278 9.71209 16.8437V14.1564C9.71209 14.0681 9.73164 13.9875 9.76895 13.9146C9.65701 14.0182 9.58594 14.1698 9.58594 14.3407V16.932C9.58594 17.2411 9.8187 17.4925 10.1048 17.4925H12.5035C12.6616 17.4925 12.8038 17.4157 12.8979 17.2948C12.8304 17.3351 12.754 17.3562 12.674 17.3562Z" fill="white"/>
<path d="M12.4893 13.7821H10.1155C9.96093 13.7821 9.82233 13.8531 9.72461 13.9683C9.81878 13.8742 9.94493 13.8167 10.0835 13.8167H12.4574C12.7505 13.8167 12.9886 14.0739 12.9886 14.3906V16.9551C12.9886 17.1048 12.9353 17.2411 12.8483 17.3428C12.9531 17.2372 13.0206 17.0875 13.0206 16.9205V14.356C13.0206 14.0393 12.7825 13.7821 12.4893 13.7821Z" fill="white"/>
<path d="M6.77852 12.2004H4.39581C4.10441 12.2004 3.86987 11.9451 3.86987 11.6322V9.05816C3.86987 8.74337 4.10619 8.48999 4.39581 8.48999H6.77852C7.06992 8.48999 7.30446 8.74528 7.30446 9.05816V11.6322C7.30446 11.947 7.06815 12.2004 6.77852 12.2004Z" fill="white"/>
<path d="M6.95798 12.0641H4.47044C4.20924 12.0641 3.99603 11.8357 3.99603 11.5516V8.8643C3.99603 8.776 4.01557 8.69538 4.05288 8.62244C3.94094 8.72609 3.86987 8.87773 3.86987 9.04857V11.6399C3.86987 11.9489 4.10264 12.2004 4.3887 12.2004H6.78741C6.94555 12.2004 7.08769 12.1236 7.18186 12.0027C7.11434 12.043 7.03794 12.0641 6.95798 12.0641Z" fill="white"/>
<path d="M6.77328 8.48999H4.39945C4.24486 8.48999 4.10627 8.56101 4.00854 8.67618C4.10272 8.58213 4.22887 8.52454 4.36746 8.52454H6.74129C7.03447 8.52454 7.27256 8.78175 7.27256 9.09847V11.6629C7.27256 11.8127 7.21926 11.9489 7.13219 12.0507C7.23703 11.9451 7.30454 11.7954 7.30454 11.6284V9.06392C7.30454 8.7472 7.06645 8.48999 6.77328 8.48999Z" fill="white"/>
<path d="M18.0471 22.5523H15.6644C15.373 22.5523 15.1384 22.297 15.1384 21.9842V19.4101C15.1384 19.0953 15.3747 18.8419 15.6644 18.8419H18.0471C18.3385 18.8419 18.573 19.0972 18.573 19.4101V21.9842C18.573 22.297 18.3367 22.5523 18.0471 22.5523Z" fill="white"/>
<path d="M18.2265 22.4141H15.739C15.4778 22.4141 15.2646 22.1857 15.2646 21.9016V19.2143C15.2646 19.126 15.2841 19.0454 15.3214 18.9724C15.2095 19.0761 15.1384 19.2277 15.1384 19.3985V21.9899C15.1384 22.2989 15.3712 22.5504 15.6573 22.5504H18.056C18.2141 22.5504 18.3562 22.4736 18.4504 22.3527C18.3829 22.393 18.3065 22.4141 18.2265 22.4141Z" fill="white"/>
<path d="M18.0418 18.84H15.668C15.5134 18.84 15.3748 18.911 15.2771 19.0262C15.3713 18.9321 15.4974 18.8745 15.636 18.8745H18.0098C18.303 18.8745 18.5411 19.1317 18.5411 19.4485V22.0129C18.5411 22.1626 18.4878 22.2989 18.4007 22.4007C18.5056 22.2951 18.5731 22.1454 18.5731 21.9784V19.4139C18.5731 19.0972 18.335 18.84 18.0418 18.84Z" fill="white"/>
<path d="M18.0009 17.4945H15.6182C15.3268 17.4945 15.0923 17.2392 15.0923 16.9263V14.3522C15.0923 14.0374 15.3286 13.7841 15.6182 13.7841H18.0009C18.2923 13.7841 18.5269 14.0394 18.5269 14.3522V16.9263C18.5269 17.2392 18.2923 17.4945 18.0009 17.4945Z" fill="white"/>
<path d="M18.1804 17.3562H15.6929C15.4317 17.3562 15.2184 17.1278 15.2184 16.8437V14.1564C15.2184 14.0681 15.238 13.9875 15.2753 13.9146C15.1634 14.0182 15.0923 14.1698 15.0923 14.3407V16.932C15.0923 17.2411 15.325 17.4925 15.6111 17.4925H18.0098C18.168 17.4925 18.3101 17.4157 18.4043 17.2948C18.3368 17.3351 18.2621 17.3562 18.1804 17.3562Z" fill="white"/>
<path d="M17.9957 13.7821H15.6219C15.4673 13.7821 15.3287 13.8531 15.231 13.9683C15.3251 13.8742 15.4513 13.8167 15.5899 13.8167H17.9637C18.2569 13.8167 18.495 14.0739 18.495 14.3906V16.9551C18.495 17.1048 18.4417 17.2411 18.3546 17.3428C18.4594 17.2372 18.527 17.0875 18.527 16.9205V14.356C18.527 14.0393 18.2906 13.7821 17.9957 13.7821Z" fill="white"/>
<path d="M6.98653 22.6771H4.60382C4.31242 22.6771 4.07788 22.4218 4.07788 22.1089V19.5349C4.07788 19.2201 4.3142 18.9667 4.60382 18.9667H6.98653C7.27793 18.9667 7.51247 19.222 7.51247 19.5349V22.1089C7.51425 22.4218 7.27793 22.6771 6.98653 22.6771Z" fill="white"/>
<path d="M7.16599 22.5389H4.67845C4.41725 22.5389 4.20403 22.3104 4.20403 22.0263V19.339C4.20403 19.2507 4.22358 19.1701 4.26089 19.0972C4.14895 19.2008 4.07788 19.3525 4.07788 19.5233V22.1146C4.07788 22.4237 4.31065 22.6751 4.59671 22.6751H6.99542C7.15356 22.6751 7.2957 22.5984 7.38987 22.4774C7.32413 22.5177 7.24773 22.5389 7.16599 22.5389Z" fill="white"/>
<path d="M6.98299 18.9647H4.60916C4.45458 18.9647 4.31599 19.0357 4.21826 19.1509C4.31243 19.0569 4.43859 18.9993 4.57718 18.9993H6.95101C7.24419 18.9993 7.48228 19.2565 7.48228 19.5732V22.1377C7.48228 22.2874 7.42897 22.4237 7.34191 22.5254C7.44674 22.4198 7.51426 22.2701 7.51426 22.1031V19.5387C7.51426 19.2219 7.27617 18.9647 6.98299 18.9647Z" fill="white"/>
<path d="M12.4946 22.6771H10.1119C9.82048 22.6771 9.58594 22.4218 9.58594 22.1089V19.5349C9.58594 19.2201 9.82225 18.9667 10.1119 18.9667H12.4946C12.786 18.9667 13.0205 19.222 13.0205 19.5349V22.1089C13.0205 22.4218 12.7842 22.6771 12.4946 22.6771Z" fill="white"/>
<path d="M12.674 22.5389H10.1865C9.92531 22.5389 9.71209 22.3104 9.71209 22.0263V19.339C9.71209 19.2507 9.73164 19.1701 9.76895 19.0972C9.65701 19.2008 9.58594 19.3525 9.58594 19.5233V22.1146C9.58594 22.4237 9.8187 22.6751 10.1048 22.6751H12.5035C12.6616 22.6751 12.8038 22.5984 12.8979 22.4774C12.8304 22.5177 12.754 22.5389 12.674 22.5389Z" fill="white"/>
<path d="M12.4893 18.9647H10.1155C9.96093 18.9647 9.82233 19.0357 9.72461 19.1509C9.81878 19.0569 9.94493 18.9993 10.0835 18.9993H12.4574C12.7505 18.9993 12.9886 19.2565 12.9886 19.5732V22.1377C12.9886 22.2874 12.9353 22.4237 12.8483 22.5254C12.9531 22.4198 13.0206 22.2701 13.0206 22.1031V19.5387C13.0206 19.2219 12.7825 18.9647 12.4893 18.9647Z" fill="white"/>
</svg>
