<svg width="32" height="32" viewBox="0 0 32 32" fill="none" xmlns="http://www.w3.org/2000/svg">
<path d="M14.7463 27.1016H1.74609V30.2882H14.7463V27.1016Z" fill="url(#paint0_linear_468_22093)"/>
<path d="M1.58855 29.168H14.7568C14.9495 29.168 15.1403 29.2048 15.3183 29.2765C15.4962 29.3481 15.6578 29.4531 15.7938 29.5854C15.9298 29.7177 16.0375 29.8747 16.1107 30.0475C16.1839 30.2202 16.2211 30.4053 16.2203 30.592V31.2575C16.2203 31.4543 16.1396 31.6431 15.996 31.7823C15.8523 31.9215 15.6575 31.9997 15.4544 31.9997H0.890999C0.687847 31.9997 0.493015 31.9215 0.349365 31.7823C0.205714 31.6431 0.125012 31.4543 0.125012 31.2575V30.592C0.124222 30.4053 0.161494 30.2202 0.23469 30.0475C0.307886 29.8747 0.415564 29.7177 0.551545 29.5854C0.687526 29.4531 0.849132 29.3481 1.02709 29.2765C1.20505 29.2048 1.39585 29.168 1.58855 29.168Z" fill="url(#paint1_linear_468_22093)"/>
<path d="M14.4634 11.1468L12.7969 12.7617L26.6493 26.1851L28.3158 24.5703L14.4634 11.1468Z" fill="url(#paint2_linear_468_22093)"/>
<path d="M21.1169 8.66374L15.5664 3.28516L12.8616 5.90617L18.4121 11.2848L21.1169 8.66374Z" fill="url(#paint3_linear_468_22093)"/>
<path d="M12.7184 16.8005L7.16797 11.4219L4.46319 14.0429L10.0137 19.4215L12.7184 16.8005Z" fill="url(#paint4_linear_468_22093)"/>
<path d="M14.5189 24.5039H1.89816C0.849834 24.5039 0 25.3274 0 26.3433C0 27.3591 0.849834 28.1827 1.89816 28.1827H14.5189C15.5673 28.1827 16.4171 27.3591 16.4171 26.3433C16.4171 25.3274 15.5673 24.5039 14.5189 24.5039Z" fill="url(#paint5_linear_468_22093)"/>
<path d="M18.6598 9.61614L14.5372 5.62128C13.5976 4.71077 12.0742 4.71077 11.1346 5.62128L7.01209 9.61614C6.07249 10.5266 6.07249 12.0029 7.01209 12.9134L11.1346 16.9082C12.0742 17.8187 13.5976 17.8187 14.5372 16.9082L18.6598 12.9134C19.5994 12.0029 19.5994 10.5266 18.6598 9.61614Z" fill="url(#paint6_linear_468_22093)"/>
<path d="M19.1071 2.0797L22.3128 5.18608C22.882 5.73765 23.2017 6.48574 23.2017 7.26578C23.2017 8.04581 22.882 8.7939 22.3128 9.34547L22.2644 9.39236C22.0327 9.61688 21.7184 9.74301 21.3908 9.74301C21.0631 9.74301 20.7489 9.61688 20.5172 9.39237L14.7664 3.81963C14.5347 3.59512 14.4045 3.29062 14.4045 2.97311C14.4045 2.6556 14.5347 2.3511 14.7664 2.12659L14.8148 2.0797C15.384 1.52813 16.156 1.21826 16.9609 1.21826C17.7659 1.21826 18.5379 1.52813 19.1071 2.0797Z" fill="url(#paint7_linear_468_22093)"/>
<path d="M6.59212 20.3695L3.38646 17.2631C2.81726 16.7116 2.49749 15.9635 2.49749 15.1834C2.49749 14.4034 2.81726 13.6553 3.38646 13.1037L3.43485 13.0569C3.66654 12.8323 3.98077 12.7062 4.30842 12.7062C4.63608 12.7062 4.95031 12.8323 5.182 13.0569L10.9328 18.6296C11.1645 18.8541 11.2947 19.1586 11.2947 19.4761C11.2947 19.7936 11.1645 20.0981 10.9328 20.3226L10.8844 20.3695C10.3152 20.9211 9.54325 21.231 8.73828 21.231C7.93331 21.231 7.16132 20.9211 6.59212 20.3695Z" fill="url(#paint8_linear_468_22093)"/>
<path d="M23.494 21.2641L23.2444 21.5059C22.542 22.1865 22.542 23.29 23.2444 23.9706L27.9374 28.5183C28.6398 29.1989 29.7785 29.1989 30.4809 28.5183L30.7305 28.2765C31.4329 27.5959 31.4329 26.4924 30.7305 25.8118L26.0375 21.2641C25.3351 20.5835 24.1963 20.5835 23.494 21.2641Z" fill="url(#paint9_linear_468_22093)"/>
<defs>
<linearGradient id="paint0_linear_468_22093" x1="8.22217" y1="26.5606" x2="8.25711" y2="29.831" gradientUnits="userSpaceOnUse">
<stop offset="0.25" stop-color="#3C5494"/>
<stop offset="1" stop-color="#2B3F7E"/>
</linearGradient>
<linearGradient id="paint1_linear_468_22093" x1="0.125012" y1="30.5815" x2="16.2203" y2="30.5815" gradientUnits="userSpaceOnUse">
<stop offset="0.25" stop-color="#0D2C6C"/>
<stop offset="1" stop-color="#2B3F7E"/>
</linearGradient>
<linearGradient id="paint2_linear_468_22093" x1="12.7965" y1="18.667" x2="28.3155" y2="18.667" gradientUnits="userSpaceOnUse">
<stop stop-color="#0D2C6C"/>
<stop offset="1" stop-color="#5A73B8"/>
</linearGradient>
<linearGradient id="paint3_linear_468_22093" x1="12.8612" y1="7.28564" x2="21.1165" y2="7.28564" gradientUnits="userSpaceOnUse">
<stop offset="0.15" stop-color="#5F7FD3"/>
<stop offset="0.9" stop-color="#7A9BD7"/>
</linearGradient>
<linearGradient id="paint4_linear_468_22093" x1="4.46273" y1="15.4224" x2="12.7193" y2="15.4224" gradientUnits="userSpaceOnUse">
<stop offset="0.15" stop-color="#7596D6"/>
<stop offset="0.9" stop-color="#6383D4"/>
</linearGradient>
<linearGradient id="paint5_linear_468_22093" x1="0" y1="26.3444" x2="16.4171" y2="26.3444" gradientUnits="userSpaceOnUse">
<stop offset="0.25" stop-color="#3C5494"/>
<stop offset="1" stop-color="#0D2C6C"/>
</linearGradient>
<linearGradient id="paint6_linear_468_22093" x1="6.30769" y1="11.264" x2="19.3643" y2="11.264" gradientUnits="userSpaceOnUse">
<stop stop-color="#0D2A84"/>
<stop offset="0.9999" stop-color="#4E66AF"/>
<stop offset="1" stop-color="#FFA415"/>
</linearGradient>
<linearGradient id="paint7_linear_468_22093" x1="14.406" y1="5.47975" x2="23.2029" y2="5.47975" gradientUnits="userSpaceOnUse">
<stop stop-color="#42548A"/>
<stop offset="1" stop-color="#0D2C6C"/>
</linearGradient>
<linearGradient id="paint8_linear_468_22093" x1="2.49743" y1="16.969" x2="11.2943" y2="16.969" gradientUnits="userSpaceOnUse">
<stop stop-color="#5B74B9"/>
<stop offset="1" stop-color="#0D2C6C"/>
</linearGradient>
<linearGradient id="paint9_linear_468_22093" x1="22.7183" y1="24.8915" x2="31.2558" y2="24.8915" gradientUnits="userSpaceOnUse">
<stop stop-color="#0D2C6C"/>
<stop offset="1" stop-color="#6881C9"/>
</linearGradient>
</defs>
</svg>
