<svg width="32" height="32" viewBox="0 0 32 32" fill="none" xmlns="http://www.w3.org/2000/svg">
<path d="M16 8.5L25.5 12V14.394C25.4998 17.5273 24.7635 20.6168 23.3502 23.4134C21.937 26.2099 19.8865 28.6353 17.364 30.494L16 31.5L14.636 30.495C12.1133 28.6362 10.0628 26.2107 8.64953 23.4139C7.23631 20.6172 6.50002 17.5275 6.5 14.394V12L16 8.5Z" fill="#0D2C6C"/>
<path d="M8 14.5315V13L16 10L24 13V14.5315C24.0002 17.451 23.2903 20.3268 21.9314 22.9109C20.5726 25.4949 18.6055 27.7096 16.2 29.364L16 29.5L15.8025 29.364C13.3965 27.7099 11.429 25.4953 10.0697 22.9112C8.71035 20.3272 8.00004 17.4513 8 14.5315Z" fill="#E4E4E4"/>
<path d="M17.3 28.364C14.8945 26.7096 12.9274 24.4949 11.5686 21.9109C10.2097 19.3268 9.49976 16.451 9.5 13.5315V12.4375L8 13V14.5315C8.00004 17.4513 8.71035 20.3272 10.0697 22.9112C11.429 25.4953 13.3965 27.7099 15.8025 29.364L16 29.5L16.2 29.364C16.622 29.074 17.0235 28.764 17.4155 28.4405L17.3 28.364Z" fill="#284277"/>
<path d="M16 21.354L13 23.5L14 20L13.375 19.5H10.5L13 21.5L12 25L15 22.854L18 25L17.2045 22.2155L16 21.354Z" fill="#2B4272"/>
<path d="M16 14.5L17 18H20.5L18 20L19 23.5L16 21.354L13 23.5L14 20L11.5 18H15L16 14.5Z" fill="#0D2C6C"/>
<path d="M24.5 2.5L23.5 4.5H21.5L23 6L22.5 8.5L24.5 7L26.5 8.5L26 6L27.5 4.5H25.5L24.5 2.5Z" fill="#0D2C6C"/>
<path d="M24.5 6L26.2645 7.3235L26.5 8.5L24.5 7L22.5 8.5L22.7355 7.3235L24.5 6Z" fill="#001D5A"/>
<path d="M16 0L15 2H13L14.5 3.5L14 6L16 4.5L18 6L17.5 3.5L19 2H17L16 0Z" fill="#0D2C6C"/>
<path d="M16 3L17.7645 4.3235L18 5.5L16 4L14 5.5L14.2355 4.3235L16 3Z" fill="#001D5A"/>
<path d="M7.5 3.5L6.5 5.5H4.5L6 7L5.5 9.5L7.5 8L9.5 9.5L9 7L10.5 5.5H8.5L7.5 3.5Z" fill="#0D2C6C"/>
<path d="M7.5 7L9.2645 8.3235L9.5 9.5L7.5 8L5.5 9.5L5.7355 8.3235L7.5 7Z" fill="#001D5A"/>
</svg>
