<svg width="32" height="32" viewBox="0 0 32 32" fill="none" xmlns="http://www.w3.org/2000/svg">
<path d="M20.785 7.86706C20.5155 7.85356 20.291 8.06856 20.291 8.33606V19.1366C20.291 19.4046 20.5135 19.6171 20.781 19.6056L22.6795 19.5196C22.9295 19.5081 23.129 19.3011 23.129 19.0491V8.42756C23.129 8.17606 22.9295 7.96906 22.6795 7.95706L20.785 7.86706Z" fill="#0D2C6C"/>
<path d="M14.8124 7.58004C14.5429 7.56854 14.3184 7.78104 14.3184 8.05104V19.408C14.3184 19.676 14.5429 19.8905 14.8124 19.877L16.7069 19.791C16.9609 19.781 17.1599 19.5705 17.1599 19.3165V8.14254C17.1599 7.88654 16.9609 7.67754 16.7069 7.66804L14.8124 7.58004Z" fill="#0D2C6C"/>
<path d="M10.533 7.37094C10.213 7.35544 9.97046 7.65444 10.051 7.96494L10.2265 8.62294V8.62494C10.2385 8.67194 10.244 8.71294 10.244 8.76944V9.74794C10.244 9.99794 10.4415 10.2049 10.6935 10.2169C17.031 10.5309 22.041 10.7794 28.6075 11.0839C28.877 11.0974 29.1035 10.8809 29.1015 10.6114L29.0975 9.69144C29.1425 8.91394 28.535 8.23844 27.758 8.20094L10.533 7.37094Z" fill="#0D2C6C"/>
<path d="M28.6075 18.3065L8.79897 19.209C8.54497 19.219 8.34547 19.426 8.34547 19.6795V21.619C8.34397 21.8885 8.57047 22.1055 8.83997 22.092L27.746 21.1875C28.5235 21.1505 29.133 20.4745 29.088 19.6975L29.092 19.7325L29.1015 18.785C29.1055 18.5115 28.879 18.295 28.6075 18.3065Z" fill="#0D2C6C"/>
<path d="M8.81847 19.752C8.55647 19.752 8.34397 19.965 8.34547 20.2265V25.885C8.34547 26.3535 8.53697 26.785 8.80447 27.133C9.07397 27.4785 9.43747 27.7795 9.92947 27.7795H25.1795C25.959 27.7795 26.5975 27.1405 26.5975 26.3635C26.5975 25.584 25.959 24.9415 25.1795 24.9415H10.957C10.6975 24.9415 10.4845 25.1505 10.4845 25.412C10.4825 25.674 10.6955 25.8865 10.957 25.885H25.1795C25.451 25.885 25.656 26.09 25.656 26.3635C25.656 26.635 25.451 26.836 25.1795 26.836H9.92947C9.89647 26.836 9.70497 26.754 9.55097 26.5545C9.39447 26.3535 9.28897 26.0725 9.28897 25.885V20.2265C9.28897 19.965 9.07997 19.754 8.81847 19.752Z" fill="#0D2C6C" fill-opacity="0.8"/>
<path d="M11.1875 21.9805V8.78503C11.1895 8.65253 11.174 8.51553 11.1385 8.38103L10.3885 5.58603C10.3865 5.58003 10.385 5.57253 10.383 5.56653C10.281 5.23853 10.0565 4.94153 9.73448 4.75603L7.39848 3.40453C7.28898 3.34203 7.15998 3.32603 7.03898 3.35953C6.91798 3.39253 6.81648 3.47053 6.75398 3.58003L5.86498 5.11503C5.74198 5.33203 5.80848 5.60953 6.01948 5.74603L7.80448 6.90803L8.34548 8.93553V22.131L11.1875 21.9805Z" fill="#0D2C6C"/>
<path d="M26.754 8.1525C26.4845 8.1385 26.26 8.3535 26.26 8.623V19.826C26.258 20.088 26.4705 20.301 26.7325 20.299H28.627C28.8905 20.301 29.1015 20.088 29.1015 19.826V9.6075C29.088 8.8185 28.465 8.203 27.74 8.201L26.754 8.1525Z" fill="#0D2C6C"/>
<path d="M11.9045 30.6251C12.9508 30.6251 13.799 29.7769 13.799 28.7306C13.799 27.6843 12.9508 26.8361 11.9045 26.8361C10.8582 26.8361 10.01 27.6843 10.01 28.7306C10.01 29.7769 10.8582 30.6251 11.9045 30.6251Z" fill="#0D2C6C"/>
<path d="M22.8086 30.6251C23.8549 30.6251 24.7031 29.7769 24.7031 28.7306C24.7031 27.6843 23.8549 26.8361 22.8086 26.8361C21.7623 26.8361 20.9141 27.6843 20.9141 28.7306C20.9141 29.7769 21.7623 30.6251 22.8086 30.6251Z" fill="#0D2C6C"/>
<path d="M11.9044 26.8361C11.1424 26.8361 10.4804 27.2951 10.1794 27.9491C10.4199 27.8421 10.6834 27.7796 10.9609 27.7796C12.0019 27.7796 12.8554 28.6331 12.8554 29.6741C12.8554 29.9511 12.7949 30.2171 12.6854 30.4551C13.3399 30.1546 13.7989 29.4921 13.7989 28.7306C13.7989 27.6896 12.9454 26.8361 11.9044 26.8361Z" fill="#0D2C6C"/>
<path d="M22.8085 26.8361C22.045 26.8361 21.383 27.2951 21.084 27.9491C21.3225 27.8421 21.588 27.7796 21.865 27.7796C22.9045 27.7796 23.76 28.6331 23.76 29.6741C23.76 29.9511 23.6975 30.2171 23.588 30.4551C24.244 30.1546 24.703 29.4921 24.703 28.7306C24.703 27.6896 23.8495 26.8361 22.8085 26.8361Z" fill="#0D2C6C"/>
<path d="M10.5665 27.3925C10.2245 27.7365 10.01 28.211 10.01 28.7305C10.01 28.992 10.2205 29.205 10.4845 29.205C10.744 29.203 10.955 28.99 10.953 28.7305C10.953 28.465 11.0605 28.2305 11.2325 28.0585C11.416 27.875 11.416 27.578 11.2325 27.3925C11.049 27.211 10.752 27.211 10.5665 27.3925Z" fill="#0D2C6C"/>
<path d="M21.8026 27.254C21.6761 27.254 21.5566 27.3045 21.4671 27.3925C21.1251 27.7365 20.9141 28.211 20.9141 28.7305C20.9121 28.992 21.1251 29.205 21.3866 29.203C21.6486 29.203 21.8596 28.99 21.8576 28.7305C21.8576 28.465 21.9631 28.2305 22.1366 28.0585C22.3186 27.875 22.3186 27.578 22.1366 27.3925C22.0471 27.3045 21.9276 27.254 21.8026 27.254Z" fill="#0D2C6C"/>
<path d="M11.9044 27.7795C12.4354 27.7795 12.8554 28.199 12.8554 28.7305C12.8554 29.2615 12.4354 29.6815 11.9044 29.6815C11.3729 29.6815 10.9529 29.2615 10.9529 28.7305C10.9529 28.199 11.3729 27.7795 11.9044 27.7795Z" fill="#ECECEC"/>
<path d="M22.8084 27.7795C23.3379 27.7795 23.7599 28.199 23.7599 28.7305C23.7599 29.2615 23.3379 29.6815 22.8084 29.6815C22.2774 29.6815 21.8574 29.2615 21.8574 28.7305C21.8574 28.199 22.2774 27.7795 22.8084 27.7795Z" fill="#ECECEC"/>
<circle cx="5.5" cy="3.5" r="2.5" fill="#112F6C"/>
</svg>
