<svg width="28" height="21" viewBox="0 0 28 21" fill="none" xmlns="http://www.w3.org/2000/svg">
<path d="M16.0252 5.8914L21.8975 13.3273L27.2301 13.4195L27.3914 4.0876L23.8153 4.02577C23.538 4.02098 23.267 3.95962 23.015 3.84325C22.4454 3.5807 17.1753 1.30859 17.1753 1.30859" fill="#0D2C6C"/>
<path d="M4.96559 2.74911L0.299617 2.66845L0.138283 12.0004L4.9189 12.083L12.3956 19.8228C12.9072 20.3524 13.751 20.3669 14.2806 19.8554C14.5457 19.5999 14.6816 19.2609 14.6875 18.9196C14.6934 18.5783 14.5693 18.2348 14.3132 17.9703L14.0433 17.6909C13.9221 17.5655 13.9256 17.3648 14.0511 17.243C14.1772 17.1212 14.3772 17.1246 14.499 17.2507L15.0964 17.8692C15.608 18.3987 16.4519 18.4133 16.9815 17.9017C17.2466 17.6463 17.3825 17.3073 17.3884 16.966C17.3943 16.6247 17.2702 16.2812 17.014 16.0167L16.7442 15.7373C16.623 15.6119 16.6265 15.4112 16.7519 15.2894C16.878 15.1676 17.078 15.171 17.1998 15.2971L17.7972 15.9156C18.3088 16.4451 19.1527 16.4597 19.6823 15.9481C19.9474 15.6927 20.0833 15.3537 20.0892 15.0124C20.0951 14.6711 19.971 14.3276 19.7149 14.0631L19.4463 13.7851C19.3245 13.6589 19.3279 13.459 19.4541 13.3371C19.5795 13.2153 19.7802 13.2188 19.902 13.3449L20.4981 13.9619C21.0097 14.4915 21.8535 14.5061 22.3831 13.9945C22.6483 13.7391 22.7841 13.4 22.79 13.0588C22.7959 12.7175 22.6719 12.374 22.4157 12.1095L14.3206 1.57731C7.6549 1.46207 4.96559 2.74911 4.96559 2.74911Z" fill="#305BB5"/>
<path d="M11.1368 2.47605C11.0788 2.51572 11.0281 2.55618 10.9773 2.60398C10.9773 2.60398 9.18422 5.04002 8.37848 6.05957C8.28167 6.18259 8.23381 6.32845 8.23463 6.47382C8.23537 6.66252 8.32113 6.87004 8.49163 7.03501C8.83985 7.37241 9.34251 7.49312 9.71645 7.49958C10.5043 7.51321 11.2476 6.90463 11.9877 6.28866C12.8137 5.60151 13.5953 4.89958 13.5953 4.89958L17.678 4.97016L18.4022 1.64885L17.0056 0.477199C16.8031 0.351014 16.5742 0.284381 16.3436 0.279727C16.1609 0.276569 15.9776 0.312072 15.8043 0.387088C14.7643 0.841179 11.958 1.91483 11.1368 2.47605ZM10.4389 17.2375C10.3189 17.3535 9.88083 17.7766 9.76081 17.8926C9.23122 18.4042 9.21663 19.248 9.72822 19.7776C10.2398 20.3072 11.0837 20.3218 11.6133 19.8102C11.7333 19.6943 12.1713 19.2711 12.2914 19.1552C12.821 18.6436 12.8355 17.7997 12.324 17.2701C11.8124 16.7405 10.9685 16.7259 10.4389 17.2375ZM8.58513 15.3185C8.46511 15.4345 8.02706 15.8576 7.90704 15.9736C7.37745 16.4852 7.36286 17.329 7.87445 17.8586C8.38604 18.3882 9.22991 18.4028 9.7595 17.8912C9.87952 17.7753 10.3176 17.3521 10.4376 17.2362C10.9672 16.7246 10.9818 15.8807 10.4702 15.3511C9.95859 14.8215 9.11472 14.8069 8.58513 15.3185ZM6.73136 13.3995C6.61133 13.5155 6.17329 13.9386 6.05327 14.0546C5.52368 14.5662 5.50909 15.41 6.02068 15.9396C6.53226 16.4692 7.37614 16.4838 7.90573 15.9722C8.02575 15.8563 8.4638 15.4331 8.58382 15.3172C9.11341 14.8056 9.128 13.9617 8.61641 13.4321C8.10482 12.9025 7.26095 12.8879 6.73136 13.3995ZM4.87758 11.4805C4.75756 11.5965 4.31952 12.0196 4.19949 12.1356C3.6699 12.6472 3.65532 13.491 4.1669 14.0206C4.67849 14.5502 5.52237 14.5648 6.05196 14.0532C6.17198 13.9373 6.61002 13.5141 6.73005 13.3982C7.25964 12.8866 7.27422 12.0427 6.76264 11.5131C6.25171 10.9835 5.40717 10.9689 4.87758 11.4805Z" fill="#0D2C6C"/>
<path d="M10.9013 17.7134L10.5622 18.041L11.4924 19.0038L11.8314 18.6763C12.0825 18.4273 12.0901 17.9874 11.8478 17.7298C11.7233 17.601 11.5579 17.5314 11.3779 17.5283C11.1979 17.5252 11.0301 17.589 10.9013 17.7134ZM9.04751 15.7944L8.70846 16.122L9.63863 17.0849L9.97767 16.7573C10.2421 16.5019 10.2495 16.0753 9.99403 15.8108C9.73857 15.5464 9.31196 15.539 9.04751 15.7944ZM7.19374 13.8754L6.85469 14.203L7.78485 15.1659L8.1239 14.8383C8.38157 14.5894 8.38918 14.1495 8.14026 13.8918C8.0158 13.763 7.85032 13.6934 7.67034 13.6903C7.49037 13.6872 7.32257 13.751 7.19374 13.8754ZM5.33997 11.9564L5.00092 12.284L5.93108 13.2469L6.27013 12.9193C6.53458 12.6639 6.54196 12.2373 6.28649 11.9728C6.03102 11.7084 5.60442 11.701 5.33997 11.9564Z" fill="white"/>
</svg>
