<svg width="24" height="24" viewBox="0 0 24 24" fill="none" xmlns="http://www.w3.org/2000/svg">
<path d="M5.2919 6.61996L2.7959 7.43846L11.9999 10.7035L21.2034 7.43846L18.0934 6.41796M12.2064 4.48646L11.9999 4.41846L11.5849 4.55446M11.9999 21.25L4.4574 17.852L3.5219 9.65996L11.9999 13.209M11.9999 21.25V13.209M11.9999 21.25L19.5424 17.8515L20.4379 9.65946L11.9999 13.209" stroke="black" stroke-linecap="round" stroke-linejoin="round"/>
<path d="M2.79639 7.4385L3.02639 9.4525L3.52139 9.6595M21.2039 7.4385L20.9749 9.4335L20.4379 9.6595M11.9999 10.704V13.209M6.92089 18.962L6.53789 8.766M8.36389 19.612L8.24239 9.3705M17.0669 18.967L17.4499 8.7715M15.6239 19.617L15.7454 9.3755M11.7394 5.24C11.7394 5.24 11.5464 4.2915 11.3804 3.839C11.2409 3.46 10.8509 2.75 10.8509 2.75L8.83239 3.0085C9.18108 3.51034 9.46264 4.05563 9.66989 4.6305C9.99539 5.5545 10.1309 6.6975 10.1199 6.8665C7.72289 5.533 6.95389 6.744 6.72989 7.834C6.51639 8.871 8.51639 9.642 10.5679 8.5275" stroke="black" stroke-linecap="round" stroke-linejoin="round"/>
<path d="M10.1201 6.86646C11.6376 5.58746 12.4181 7.97696 11.7421 8.98646C10.7401 10.2895 10.3556 7.66396 10.1201 6.86646ZM10.1201 6.86646C8.13407 5.53796 6.70707 4.74146 5.82657 5.66846C4.40007 7.16996 6.08357 8.22196 7.15257 8.69746" stroke="black" stroke-linecap="round" stroke-linejoin="round"/>
<path d="M10.7146 6.53096C12.6156 5.70596 13.6536 5.85596 14.1431 6.94646C14.4181 7.55996 14.0921 8.83196 14.0286 8.93396L11.3946 9.30246" stroke="black" stroke-linecap="round" stroke-linejoin="round"/>
<path d="M14.1816 8.33396C17.0446 9.22246 16.8806 7.71096 16.8081 7.36196C16.6321 6.51446 14.8501 5.54846 13.8936 6.53046" stroke="black" stroke-linecap="round" stroke-linejoin="round"/>
<path d="M16.69 8.19699C16.69 8.19699 17.879 7.54599 18.069 6.95799C18.4845 5.67299 16.109 3.62449 13.804 6.42849" stroke="black" stroke-linecap="round" stroke-linejoin="round"/>
<path d="M11.2361 6.24103C11.7421 5.31203 12.0496 4.14103 13.8626 2.98853L15.6851 3.12503C16.0511 3.31053 16.5856 4.12103 15.4266 5.17403" stroke="black" stroke-linecap="round" stroke-linejoin="round"/>
<path d="M15.6851 3.12504C14.4171 3.67004 13.9926 4.98255 13.4271 6.15455M8.83256 3.00854C8.24456 3.80004 8.87556 5.41454 9.17356 6.25205M15.7451 9.37655L14.0626 8.84405M17.4501 8.77155L16.4206 8.44605" stroke="black" stroke-linecap="round" stroke-linejoin="round"/>
</svg>
